<svg width="1200" height="600" viewBox="0 0 1200 600" fill="none" xmlns="http://www.w3.org/2000/svg">
<rect width="1200" height="600" fill="#B5B5B5"/>
<g clip-path="url(#clip0_21_2)">
<path d="M257.2 323.785L279.203 355.241L276.188 357.278C274.816 355.729 272.939 354.718 270.891 354.426C266.723 355.559 262.762 357.347 259.156 359.723C248.532 365.864 237.275 370.837 225.581 374.555C214.937 377.291 203.972 378.579 192.983 378.385C171.236 379.273 149.754 373.347 131.538 361.434C122.335 355.111 114.721 346.743 109.29 336.987C102.984 325.742 99.7253 313.044 99.837 300.152C99.6606 282.659 105.827 265.694 117.195 252.397C133.494 232.132 158.865 222 193.309 222C204.159 221.789 214.988 223.05 225.499 225.749C237.23 229.438 248.517 234.412 259.156 240.58C262.778 242.908 266.736 244.667 270.891 245.796C272.926 245.465 274.791 244.461 276.188 242.944L279.203 244.9L257.2 276.437L254.022 274.4C254.087 273.396 254.087 272.389 254.022 271.385C253.999 270.235 253.732 269.104 253.241 268.064C252.749 267.025 252.043 266.101 251.169 265.354C248.006 262.69 244.53 260.418 240.82 258.59C227.462 251.342 212.5 247.559 197.303 247.589C181.815 246.781 166.525 251.36 154.03 260.546C147.963 265.161 143.078 271.151 139.777 278.022C136.476 284.893 134.853 292.45 135.042 300.07C134.895 307.71 136.561 315.275 139.904 322.145C143.248 329.016 148.172 334.996 154.274 339.594C166.769 348.781 182.059 353.359 197.547 352.552C212.751 352.553 227.713 348.743 241.064 341.469C244.782 339.619 248.257 337.32 251.414 334.623C252.288 333.876 252.994 332.953 253.485 331.913C253.977 330.874 254.243 329.742 254.266 328.593C254.334 327.643 254.334 326.69 254.266 325.741L257.2 323.785Z" fill="#172A88"/>
<path d="M398.509 344.728H338.774L332.01 358.256C330.653 360.574 329.818 363.161 329.566 365.835C329.566 369.421 332.092 371.621 337.063 372.599V375.696H289.308V372.599C291.679 372.4 293.942 371.523 295.828 370.073C297.924 367.908 299.633 365.4 300.88 362.657L348.309 270.977C349.912 268.219 350.834 265.118 350.998 261.931C350.998 258.916 348.879 256.553 344.479 254.842V251.745H394.923V254.842C390.685 256.471 388.567 258.998 388.567 262.42C388.814 265.6 389.82 268.674 391.5 271.385L440.396 360.212C442.093 363.621 444.261 366.776 446.834 369.584C448.828 371.248 451.263 372.296 453.842 372.599V375.696H401.035V372.599C406.088 371.784 408.614 369.584 408.614 365.917C408.366 362.864 407.357 359.922 405.68 357.36L398.509 344.728ZM389.137 327.37L367.867 287.439L347.657 327.37H389.137Z" fill="#172A88"/>
<path d="M503.39 324.763V364.042C503.298 365.944 503.875 367.818 505.02 369.339C506.64 370.85 508.64 371.892 510.806 372.355V375.451H464.925V372.355C467.061 371.97 469.041 370.98 470.63 369.502C471.844 368.014 472.455 366.123 472.341 364.205V263.072C472.465 261.192 471.884 259.332 470.711 257.857C469.092 256.346 467.092 255.304 464.925 254.842V251.745H550.004C558.483 251.576 566.961 252.122 575.348 253.375C580.821 254.336 586.07 256.297 590.832 259.161C595.543 262.214 599.34 266.485 601.822 271.52C604.304 276.556 605.378 282.169 604.93 287.765C605.167 292.059 604.523 296.357 603.037 300.393C601.552 304.429 599.256 308.118 596.292 311.235C588.3 317.812 578.609 321.994 568.34 323.296L592.788 355.893C595.883 360.399 599.493 364.529 603.545 368.198C606.133 370.37 609.257 371.806 612.591 372.355V375.451H557.99V372.355C561.984 371.295 564.021 369.665 564.021 367.383C563.499 364.606 562.199 362.034 560.272 359.968L534.357 324.518L503.39 324.763ZM503.39 302.352H550.249C555.61 302.627 560.975 301.88 566.058 300.152C568.433 299.256 570.451 297.609 571.804 295.461C573.157 293.314 573.772 290.783 573.556 288.254C573.769 286.148 573.412 284.023 572.523 282.103C571.634 280.182 570.246 278.535 568.503 277.334C562.89 274.784 556.717 273.718 550.575 274.237H503.39V302.352Z" fill="#172A88"/>
<path d="M666.946 324.763V364.042C666.854 365.944 667.431 367.818 668.576 369.339C670.196 370.85 672.196 371.892 674.362 372.355V375.451H628.4V372.355C630.566 371.989 632.578 370.998 634.186 369.502C635.401 368.014 636.012 366.123 635.898 364.205V263.072C636.022 261.192 635.441 259.332 634.268 257.857C632.614 256.35 630.589 255.309 628.4 254.842V251.745H713.56C722.012 251.572 730.464 252.118 738.823 253.375C744.326 254.321 749.604 256.283 754.388 259.161C759.09 262.218 762.876 266.492 765.344 271.528C767.812 276.565 768.87 282.176 768.405 287.765C768.661 292.061 768.026 296.364 766.54 300.403C765.053 304.442 762.747 308.13 759.767 311.235C751.807 317.814 742.141 321.996 731.896 323.296L756.344 355.893C759.442 360.373 763.022 364.499 767.02 368.198C769.637 370.373 772.788 371.808 776.147 372.355V375.451H721.547V372.355C725.54 371.295 727.577 369.665 727.577 367.383C727.056 364.606 725.755 362.034 723.829 359.968L697.914 324.518L666.946 324.763ZM666.946 302.352H713.805C719.166 302.621 724.53 301.874 729.615 300.152C731.875 299.151 733.762 297.462 735.006 295.325C736.25 293.189 736.787 290.714 736.541 288.254C736.754 286.148 736.398 284.023 735.509 282.103C734.62 280.182 733.232 278.535 731.489 277.334C725.873 274.795 719.703 273.729 713.56 274.237H666.946V302.352Z" fill="#172A88"/>
<path d="M861.715 321.34V364.042C861.553 365.952 862.137 367.851 863.344 369.339C864.964 370.85 866.964 371.892 869.13 372.354V375.37H823.168V372.354C825.337 371.948 827.345 370.93 828.954 369.421C830.167 367.903 830.75 365.978 830.584 364.042V321.34L792.12 270.814C789.08 266.535 785.582 262.6 781.689 259.079C778.995 256.961 775.84 255.509 772.48 254.842V251.745H830.992V254.842C826.021 256.145 823.494 258.346 823.494 261.606C824.502 265.233 826.375 268.561 828.954 271.303L847.779 296.24L866.197 271.303C868.769 268.524 870.641 265.172 871.657 261.524C871.657 258.427 869.212 256.145 864.241 254.842V251.745H919.901V254.842C916.515 255.509 913.334 256.96 910.61 259.079C906.771 262.629 903.303 266.561 900.261 270.814L861.715 321.34Z" fill="#172A88"/>
<path d="M1092.58 236.261V320.932C1093.5 333.605 1090.24 346.229 1083.29 356.871C1072.21 371.214 1049.15 378.385 1014.27 378.385C994.304 379.508 974.384 375.496 956.41 366.731C948.981 362.737 943.207 356.241 940.111 348.396C936.989 339.584 935.498 330.278 935.71 320.932V236.261C935.827 234.382 935.246 232.525 934.08 231.046C932.44 229.597 930.442 228.613 928.294 228.193V224.608H977.679V228.193C975.521 228.581 973.515 229.569 971.893 231.046C970.72 232.521 970.139 234.381 970.263 236.261V311.642C970.048 318.118 970.567 324.597 971.812 330.956C972.664 334.894 974.614 338.51 977.435 341.387C984.851 348.885 997.563 352.715 1015.49 352.715C1033.42 352.715 1046.21 348.885 1053.63 341.387C1056.42 338.49 1058.37 334.882 1059.25 330.956C1060.42 324.588 1060.91 318.114 1060.72 311.642V236.261C1060.88 234.377 1060.29 232.505 1059.09 231.046C1057.45 229.597 1055.45 228.613 1053.3 228.193V224.608H1099.92V228.193C1097.77 228.613 1095.77 229.597 1094.13 231.046C1093 232.536 1092.44 234.392 1092.58 236.261V236.261Z" fill="#EB6100"/>
</g>
<defs>
<clipPath id="clip0_21_2">
<rect width="1000" height="156.385" fill="white" transform="translate(100 222)"/>
</clipPath>
</defs>
</svg>
