<svg xmlns="http://www.w3.org/2000/svg" id="Layer_1" x="0" y="0" version="1.1" viewBox="0 0 29 29" xml:space="preserve"><path d="M14.5 25.902c-.158 0-.317-.038-.463-.113a11.432 11.432 0 0 0-10.574 0A1.002 1.002 0 0 1 2 24.902v-19a1 1 0 0 1 .429-.821c3.781-2.631 8.861-2.631 12.643 0 .268.187.428.494.428.821v19a1 1 0 0 1-1 1zm-5.75-3.409c1.61 0 3.221.289 4.75.867V6.442a9.118 9.118 0 0 0-9.5 0V23.36a13.436 13.436 0 0 1 4.75-.867z"/><path d="M26 25.902c-.158 0-.317-.038-.463-.113a11.432 11.432 0 0 0-10.574 0 1.002 1.002 0 0 1-1.463-.887v-19a1 1 0 0 1 .429-.821c3.781-2.631 8.861-2.631 12.643 0 .268.187.428.494.428.821v19a1 1 0 0 1-1 1zm-5.75-3.409c1.61 0 3.221.289 4.75.867V6.442a9.118 9.118 0 0 0-9.5 0V23.36a13.436 13.436 0 0 1 4.75-.867z"/></svg>