<svg width="1088" height="303" viewBox="0 0 1088 303" fill="none" xmlns="http://www.w3.org/2000/svg">
<rect width="1088" height="303" fill="white"/>
<g clip-path="url(#clip0_19_4)">
<path d="M201.2 175.785L223.203 207.241L220.188 209.278C218.816 207.729 216.939 206.718 214.891 206.426C210.723 207.559 206.762 209.347 203.156 211.723C192.532 217.864 181.275 222.837 169.581 226.555C158.936 229.291 147.972 230.579 136.983 230.385C115.236 231.273 93.7539 225.347 75.5378 213.434C66.3351 207.111 58.7206 198.743 53.2902 188.987C46.984 177.741 43.7253 165.044 43.837 152.152C43.6606 134.659 49.827 117.694 61.195 104.397C77.4936 84.1323 102.865 74 137.309 74C148.159 73.7887 158.988 75.0498 169.499 77.7487C181.23 81.4381 192.517 86.4122 203.156 92.5804C206.778 94.9083 210.736 96.6673 214.891 97.7959C216.926 97.465 218.791 96.4606 220.188 94.9437L223.203 96.8995L201.2 128.437L198.022 126.4C198.087 125.396 198.087 124.389 198.022 123.385C197.999 122.235 197.732 121.104 197.241 120.064C196.749 119.025 196.043 118.101 195.169 117.354C192.006 114.69 188.53 112.418 184.82 110.59C171.462 103.342 156.5 99.559 141.303 99.5888C125.815 98.7812 110.525 103.36 98.0298 112.546C91.9628 117.161 87.078 123.151 83.7771 130.022C80.4761 136.893 78.8532 144.45 79.042 152.07C78.8948 159.71 80.5612 167.275 83.9044 174.145C87.2476 181.016 92.1723 186.996 98.2743 191.594C110.769 200.781 126.059 205.359 141.547 204.552C156.751 204.553 171.713 200.742 185.064 193.469C188.781 191.619 192.257 189.32 195.414 186.623C196.288 185.876 196.994 184.953 197.485 183.913C197.977 182.874 198.243 181.742 198.266 180.593C198.334 179.643 198.334 178.69 198.266 177.74L201.2 175.785Z" fill="#172A88"/>
<path d="M342.509 196.728H282.774L276.01 210.256C274.653 212.574 273.818 215.161 273.566 217.835C273.566 221.421 276.092 223.621 281.063 224.599V227.696H233.308V224.599C235.679 224.4 237.942 223.523 239.828 222.073C241.924 219.908 243.633 217.4 244.88 214.657L292.309 122.977C293.912 120.219 294.834 117.118 294.998 113.932C294.998 110.916 292.879 108.553 288.479 106.842V103.745H338.923V106.842C334.685 108.472 332.567 110.998 332.567 114.421C332.814 117.6 333.82 120.674 335.5 123.385L384.396 212.212C386.093 215.621 388.261 218.776 390.834 221.584C392.828 223.248 395.263 224.296 397.842 224.599V227.696H345.035V224.599C350.088 223.784 352.614 221.584 352.614 217.917C352.366 214.864 351.357 211.922 349.68 209.36L342.509 196.728ZM333.137 179.37L311.867 139.439L291.657 179.37H333.137Z" fill="#172A88"/>
<path d="M447.39 176.763V216.042C447.298 217.944 447.875 219.818 449.02 221.339C450.64 222.85 452.64 223.892 454.806 224.355V227.451H408.925V224.355C411.061 223.97 413.041 222.98 414.63 221.502C415.844 220.014 416.455 218.123 416.341 216.205V115.072C416.465 113.192 415.884 111.332 414.711 109.857C413.092 108.346 411.092 107.304 408.925 106.842V103.745H494.004C502.483 103.576 510.961 104.122 519.348 105.375C524.821 106.336 530.07 108.297 534.832 111.161C539.543 114.214 543.34 118.485 545.822 123.52C548.304 128.556 549.378 134.169 548.93 139.765C549.167 144.059 548.523 148.357 547.037 152.393C545.552 156.429 543.256 160.118 540.292 163.235C532.3 169.812 522.609 173.994 512.34 175.296L536.788 207.893C539.883 212.399 543.493 216.529 547.545 220.198C550.133 222.37 553.257 223.806 556.591 224.355V227.451H501.99V224.355C505.984 223.295 508.021 221.665 508.021 219.383C507.499 216.606 506.199 214.034 504.272 211.968L478.357 176.518L447.39 176.763ZM447.39 154.352H494.249C499.61 154.627 504.975 153.88 510.058 152.152C512.433 151.256 514.451 149.609 515.804 147.461C517.157 145.314 517.772 142.783 517.556 140.254C517.769 138.148 517.412 136.023 516.523 134.103C515.634 132.182 514.246 130.535 512.503 129.334C506.89 126.784 500.717 125.718 494.575 126.237H447.39V154.352Z" fill="#172A88"/>
<path d="M610.946 176.763V216.042C610.854 217.944 611.431 219.818 612.576 221.339C614.196 222.85 616.196 223.892 618.362 224.354V227.451H572.4V224.354C574.566 223.989 576.578 222.998 578.186 221.502C579.401 220.014 580.012 218.123 579.898 216.205V115.072C580.022 113.192 579.441 111.332 578.268 109.857C576.614 108.35 574.589 107.309 572.4 106.842V103.745H657.56C666.012 103.572 674.464 104.118 682.823 105.375C688.326 106.321 693.604 108.283 698.388 111.161C703.09 114.218 706.876 118.492 709.344 123.528C711.812 128.565 712.87 134.176 712.405 139.765C712.661 144.061 712.026 148.364 710.54 152.403C709.053 156.442 706.747 160.13 703.767 163.235C695.807 169.814 686.141 173.996 675.896 175.296L700.344 207.893C703.442 212.373 707.022 216.499 711.02 220.198C713.637 222.373 716.788 223.808 720.147 224.354V227.451H665.547V224.354C669.54 223.295 671.577 221.665 671.577 219.383C671.056 216.606 669.755 214.034 667.829 211.968L641.914 176.518L610.946 176.763ZM610.946 154.352H657.805C663.166 154.621 668.53 153.874 673.615 152.152C675.875 151.151 677.762 149.462 679.006 147.325C680.25 145.189 680.787 142.714 680.541 140.254C680.754 138.148 680.398 136.023 679.509 134.102C678.62 132.182 677.232 130.535 675.489 129.334C669.873 126.795 663.703 125.729 657.56 126.237H610.946V154.352Z" fill="#172A88"/>
<path d="M805.715 173.34V216.042C805.553 217.952 806.137 219.851 807.344 221.339C808.964 222.85 810.964 223.892 813.13 224.354V227.37H767.168V224.354C769.337 223.948 771.345 222.93 772.954 221.421C774.167 219.903 774.75 217.978 774.584 216.042V173.34L736.12 122.814C733.08 118.535 729.582 114.6 725.689 111.079C722.995 108.961 719.84 107.51 716.48 106.842V103.745H774.992V106.842C770.021 108.146 767.494 110.346 767.494 113.606C768.502 117.233 770.375 120.561 772.954 123.303L791.779 148.24L810.197 123.303C812.769 120.524 814.641 117.172 815.657 113.524C815.657 110.427 813.212 108.146 808.241 106.842V103.745H863.901V106.842C860.515 107.509 857.334 108.96 854.61 111.079C850.771 114.629 847.303 118.561 844.261 122.814L805.715 173.34Z" fill="#172A88"/>
<path d="M1036.58 88.2613V172.932C1037.5 185.605 1034.24 198.229 1027.29 208.871C1016.21 223.214 993.149 230.385 958.27 230.385C938.304 231.508 918.384 227.496 900.41 218.731C892.981 214.737 887.207 208.241 884.111 200.396C880.989 191.584 879.498 182.278 879.71 172.932V88.2613C879.827 86.3815 879.246 84.5248 878.08 83.0457C876.44 81.5974 874.442 80.6128 872.294 80.1935V76.6078H921.679V80.1935C919.521 80.5808 917.515 81.5695 915.893 83.0457C914.72 84.5211 914.139 86.3806 914.263 88.2613V163.642C914.048 170.118 914.567 176.597 915.812 182.956C916.664 186.894 918.614 190.51 921.435 193.387C928.851 200.885 941.563 204.715 959.492 204.715C977.42 204.715 990.215 200.885 997.631 193.387C1000.42 190.49 1002.37 186.882 1003.25 182.956C1004.42 176.588 1004.91 170.114 1004.72 163.642V88.2613C1004.88 86.3768 1004.29 84.5053 1003.09 83.0457C1001.45 81.5974 999.453 80.6128 997.305 80.1935V76.6078H1043.92V80.1935C1041.77 80.6128 1039.77 81.5974 1038.13 83.0457C1037 84.5362 1036.44 86.3919 1036.58 88.2613V88.2613Z" fill="#EB6100"/>
</g>
<defs>
<clipPath id="clip0_19_4">
<rect width="1000" height="156.385" fill="white" transform="translate(44 74)"/>
</clipPath>
</defs>
</svg>
