<svg id="圖層_1" data-name="圖層 1" xmlns="http://www.w3.org/2000/svg" viewBox="0 0 122.71 19.19"><defs><style>.cls-1{fill:#172a88;}.cls-2{fill:#eb6100;}</style></defs><path class="cls-1" d="M22.18,23.06l2.7,3.86-.37.25a1.07,1.07,0,0,0-.65-.35,5,5,0,0,0-1.44.65,20.87,20.87,0,0,1-4.12,1.82,15,15,0,0,1-4,.47,12.82,12.82,0,0,1-7.54-2.08,8.88,8.88,0,0,1-2.73-3,9.08,9.08,0,0,1-1.16-4.52A8.88,8.88,0,0,1,5,14.3Q8,10.57,14.34,10.57a14.73,14.73,0,0,1,3.95.46,20.49,20.49,0,0,1,4.13,1.82,5.17,5.17,0,0,0,1.44.64,1.13,1.13,0,0,0,.65-.35l.37.24-2.7,3.87L21.79,17a2.86,2.86,0,0,0,0-.37,1,1,0,0,0-.35-.74,6.28,6.28,0,0,0-1.27-.83,11.15,11.15,0,0,0-5.34-1.35,8.24,8.24,0,0,0-5.31,1.59,5.91,5.91,0,0,0-2.33,4.85A5.93,5.93,0,0,0,9.55,25a8.24,8.24,0,0,0,5.31,1.59,11.16,11.16,0,0,0,5.34-1.36,6.22,6.22,0,0,0,1.27-.84,1,1,0,0,0,.35-.74,2.47,2.47,0,0,0,0-.35Z" transform="translate(-2.89 -10.57)"/><path class="cls-1" d="M39.52,25.63H32.19l-.83,1.66a2.26,2.26,0,0,0-.3.93c0,.44.31.71.92.83v.38H26.12v-.38a1.52,1.52,0,0,0,.8-.31,3.23,3.23,0,0,0,.62-.91l5.82-11.25a2.46,2.46,0,0,0,.33-1.11c0-.37-.26-.66-.8-.87v-.38h6.19v.38q-.78.3-.78.93a2.45,2.45,0,0,0,.36,1.1l6,10.9a5,5,0,0,0,.79,1.15,1.64,1.64,0,0,0,.86.37v.38H39.83v-.38c.62-.1.93-.37.93-.82a2.25,2.25,0,0,0-.36-1.05ZM38.37,23.5l-2.61-4.9-2.48,4.9Z" transform="translate(-2.89 -10.57)"/><path class="cls-1" d="M52.39,23.18V28a1,1,0,0,0,.2.65,1.5,1.5,0,0,0,.71.37v.38H47.67v-.38a1.39,1.39,0,0,0,.7-.35.94.94,0,0,0,.21-.65V15.61a.93.93,0,0,0-.2-.64,1.5,1.5,0,0,0-.71-.37v-.38H58.11a18.55,18.55,0,0,1,3.11.2,5.55,5.55,0,0,1,1.9.71,3.82,3.82,0,0,1,1.73,3.51,3.87,3.87,0,0,1-1.06,2.88A6.73,6.73,0,0,1,60.36,23l3,4a8.63,8.63,0,0,0,1.32,1.51,2.31,2.31,0,0,0,1.11.51v.38h-6.7v-.38c.49-.13.74-.33.74-.61a1.83,1.83,0,0,0-.46-.91l-3.18-4.35Zm0-2.75h5.75a5.2,5.2,0,0,0,1.94-.27A1.43,1.43,0,0,0,61,18.7a1.45,1.45,0,0,0-.62-1.34,4.42,4.42,0,0,0-2.2-.38H52.39Z" transform="translate(-2.89 -10.57)"/><path class="cls-1" d="M72.46,23.18V28a1,1,0,0,0,.2.65,1.5,1.5,0,0,0,.71.37v.38H67.73v-.38a1.38,1.38,0,0,0,.71-.35.94.94,0,0,0,.21-.65V15.61a.93.93,0,0,0-.2-.64,1.55,1.55,0,0,0-.72-.37v-.38H78.18a18.33,18.33,0,0,1,3.1.2,5.52,5.52,0,0,1,1.91.71,3.81,3.81,0,0,1,1.72,3.51,3.83,3.83,0,0,1-1.06,2.88A6.69,6.69,0,0,1,80.43,23l3,4a9.14,9.14,0,0,0,1.31,1.51,2.34,2.34,0,0,0,1.12.51v.38h-6.7v-.38c.49-.13.74-.33.74-.61a1.83,1.83,0,0,0-.46-.91l-3.18-4.35Zm0-2.75h5.75a5.23,5.23,0,0,0,1.94-.27A1.44,1.44,0,0,0,81,18.7a1.45,1.45,0,0,0-.62-1.34,4.45,4.45,0,0,0-2.2-.38H72.46Z" transform="translate(-2.89 -10.57)"/><path class="cls-1" d="M96.36,22.76V28a.91.91,0,0,0,.2.65,1.5,1.5,0,0,0,.71.37v.37H91.63v-.37a1.42,1.42,0,0,0,.71-.36.93.93,0,0,0,.2-.66V22.76l-4.72-6.2a8.86,8.86,0,0,0-1.28-1.44,2.67,2.67,0,0,0-1.13-.52v-.38h7.18v.38c-.61.16-.92.43-.92.83a2.85,2.85,0,0,0,.67,1.19l2.31,3.06,2.26-3.06a2.92,2.92,0,0,0,.67-1.2c0-.38-.3-.66-.91-.82v-.38h6.83v.38a2.71,2.71,0,0,0-1.14.52,9.44,9.44,0,0,0-1.27,1.44Z" transform="translate(-2.89 -10.57)"/><path class="cls-2" d="M124.69,12.32V22.71a7.13,7.13,0,0,1-1.14,4.41c-1.36,1.76-4.19,2.64-8.47,2.64a14.36,14.36,0,0,1-7.1-1.43,4.38,4.38,0,0,1-2-2.25,9.45,9.45,0,0,1-.54-3.37V12.32a.94.94,0,0,0-.2-.64,1.51,1.51,0,0,0-.71-.35v-.44h6.06v.44a1.43,1.43,0,0,0-.71.35.93.93,0,0,0-.2.64v9.25a10.52,10.52,0,0,0,.19,2.37,2.62,2.62,0,0,0,.69,1.28c.91.92,2.47,1.39,4.67,1.39s3.77-.47,4.68-1.39a2.7,2.7,0,0,0,.69-1.28,11.3,11.3,0,0,0,.18-2.37V12.32a.89.89,0,0,0-.2-.64,1.51,1.51,0,0,0-.71-.35v-.44h5.72v.44a1.51,1.51,0,0,0-.71.35A.94.94,0,0,0,124.69,12.32Z" transform="translate(-2.89 -10.57)"/></svg>