<svg width="300" height="300" viewBox="0 0 300 300" fill="none" xmlns="http://www.w3.org/2000/svg">
<rect width="300" height="300" fill="white"/>
<g clip-path="url(#clip0_20_6)">
<path d="M206.864 205.665C209.494 205.795 211.623 204.226 213.878 203.179C217.51 201.609 220.14 198.731 222.771 195.853C225.025 193.498 227.154 191.013 229.534 188.919C234.043 184.733 238.176 180.024 243.437 176.753C246.318 174.791 249.449 173.352 252.831 172.567C256.463 171.782 260.346 172.043 263.853 173.221C266.232 174.267 268.236 175.968 269.865 178.061C271.994 180.678 272.62 183.817 273.372 186.957C273.998 190.097 274.499 193.237 274.749 196.376C275.125 199.778 273.622 202.787 272.495 205.795C271.368 208.804 270.24 211.813 269.113 214.822C268.737 215.607 268.362 216.392 267.861 217.046C266.358 218.878 265.356 221.102 264.729 223.456C264.354 225.026 263.226 225.942 262.35 227.119C260.596 229.474 258.968 231.829 257.465 234.445C255.837 237.454 253.081 239.155 250.326 240.856C247.946 242.295 245.817 244.126 243.562 245.696C243.061 246.219 242.435 246.612 241.809 247.004C237.3 248.705 233.417 251.583 229.284 253.807C226.904 254.984 224.524 255.9 222.019 256.685C218.763 257.862 215.506 259.432 212.124 260.348C208.367 261.395 204.86 262.964 201.102 263.619C200.476 263.749 199.975 264.011 199.474 264.403C197.971 265.319 196.217 265.712 194.464 265.581C193.462 265.45 192.335 265.581 191.458 265.973C190.832 266.366 190.08 266.366 189.329 266.104C187.826 265.45 186.072 265.319 184.444 265.581C179.434 265.712 174.299 265.319 169.289 264.665C164.529 264.273 159.77 264.534 155.01 264.142C150.751 263.88 146.618 263.226 142.36 263.488C139.479 262.18 136.348 263.357 133.342 262.31C131.588 261.787 129.584 261.918 127.831 262.572C126.954 262.834 125.952 262.964 125.075 262.703C120.441 262.441 116.057 263.88 111.799 265.581C108.041 267.02 104.409 268.851 100.526 270.029C98.522 270.683 96.6433 271.599 94.6392 272.384C90.005 274.084 85.1202 274.869 80.2354 274.477C78.2314 274.346 76.2274 273.823 74.4739 272.907C70.9669 271.337 67.5851 269.506 64.3286 267.282C61.8236 265.581 59.3186 263.619 57.0641 261.395C56.1873 260.61 55.5611 259.694 55.0601 258.647C54.8096 257.993 54.4338 257.339 53.8076 256.816C50.8016 254.33 48.6723 250.929 46.2926 247.92C45.4158 246.873 44.7896 245.696 44.2885 244.388C42.535 240.463 40.531 236.669 38.2765 233.006C37.3998 231.306 36.6483 229.474 36.022 227.512C34.8948 225.419 33.7675 222.541 32.3898 219.924C30.511 216 28.8827 211.813 27.3797 207.758C26.503 205.403 26.002 202.917 25.7515 200.432C25.6262 198.469 24.7495 196.769 25 194.676C25.6262 191.405 26.1272 188.265 26.503 184.995C26.8787 180.939 29.1332 177.93 31.3877 174.922C33.6423 171.913 35.1453 169.035 37.3998 166.418C40.2805 162.886 42.6603 158.961 45.7916 155.56C47.9208 153.074 49.5491 150.065 50.6763 146.926C50.9268 146.272 51.1773 145.618 51.5531 144.963C53.8076 141.693 54.3086 137.768 55.8116 134.236C58.3166 128.48 59.5691 122.331 62.1994 116.575C63.7024 113.435 64.4539 110.034 65.7064 106.894C68.0861 101.007 70.9669 95.2512 74.2234 89.7567C74.8497 88.841 75.3507 87.7944 75.8517 86.7478C77.7304 82.0383 80.3607 77.5903 81.9889 72.7499C82.3647 71.8342 82.991 70.9184 83.6172 70.0027C83.8677 69.6102 84.3687 69.3486 84.3687 68.9561C85.496 64.2465 89.2535 62.415 92.8857 60.4527C95.1403 59.4061 97.3948 57.9671 99.2735 56.2664C100.276 55.6123 101.403 55.089 102.53 54.8274C108.793 51.6877 115.055 48.5479 121.067 44.8849C124.198 43.1843 127.455 41.7452 130.837 40.5678C135.346 38.998 139.98 37.4281 144.364 35.4658C145.616 34.9425 146.743 33.8959 148.121 33.3726C150 32.7185 152.004 32.1952 153.883 31.4103C156.137 30.6254 158.267 29.1863 160.521 28.2706C163.652 26.9624 167.034 26.0466 170.416 25.3925C175.301 24.7384 180.06 24.6076 184.945 25.0001C188.828 25.1309 192.585 26.5699 196.343 27.7473C202.229 29.7096 207.615 32.7185 213.126 35.4658C214.128 35.9891 215.13 36.3815 216.132 36.774C219.765 38.0822 223.146 40.0445 226.278 42.5301C228.407 44.3616 230.661 46.0623 233.041 47.6322C235.922 49.3329 237.425 52.3418 239.429 54.8274C243.562 60.0602 245.19 66.4705 247.069 72.8807C248.071 77.067 248.572 81.3841 248.196 85.5704C247.946 89.4951 245.942 93.0273 242.811 95.1204C240.431 96.8211 237.55 97.8677 234.544 97.8677C229.409 98.2601 225.526 95.5129 221.769 92.6348C218.136 89.6259 213.878 87.4019 209.494 85.9629C207.991 85.5704 206.613 85.0472 205.235 84.393C202.605 83.0848 199.724 82.4307 196.718 82.1691C192.46 81.9074 188.327 80.9917 184.068 81.3841C182.189 81.515 180.436 81.9074 178.557 81.9074C176.553 81.7766 174.549 81.9074 172.67 82.0383C169.915 82.2999 167.285 83.0848 164.905 84.393C163.903 85.0472 162.776 85.5704 161.648 85.8321C156.262 86.8787 151.628 89.6259 147.119 92.7656C142.861 95.6437 142.986 95.7745 139.479 100.877C135.972 105.979 132.715 111.735 129.584 117.229C126.453 122.724 124.699 129.134 123.196 135.544C122.821 137.507 122.57 139.6 122.445 141.562C122.069 145.879 121.819 150.196 121.944 154.513C121.819 161.185 123.697 167.465 126.328 173.483C126.954 174.922 127.33 176.491 127.831 177.93C129.835 182.902 132.59 187.611 135.972 191.667C139.604 195.853 143.737 199.516 149.123 201.217C152.38 202.263 155.511 203.833 158.768 204.487C160.772 205.011 162.776 205.403 164.78 205.534C167.535 205.665 170.291 206.057 172.921 206.711C173.798 206.842 174.8 206.842 175.676 206.711C176.052 206.842 176.428 206.842 176.804 207.104C180.561 209.197 184.444 209.589 188.577 209.458C190.957 209.328 193.337 209.458 195.716 209.458C196.343 209.589 196.969 209.458 197.595 209.458C200.977 208.674 203.983 207.365 206.864 205.665Z" fill="#E06E31"/>
<path d="M206.864 205.665C203.983 207.365 200.852 208.673 197.72 209.589C197.094 209.72 196.468 209.72 195.842 209.589C193.462 209.589 191.082 209.589 188.702 209.589C184.569 209.72 180.561 209.328 176.929 207.234C176.553 207.104 176.177 206.973 175.802 206.842C171.668 203.571 167.034 200.955 163.402 197.03C162.65 196.376 161.774 195.722 160.897 195.199C159.018 193.891 157.39 192.19 156.137 190.228C155.135 188.658 153.883 187.088 152.505 185.78C150.626 183.948 149.624 181.332 148.497 179.108C145.366 173.09 143.236 166.68 142.109 160.008C141.358 156.214 140.857 152.42 140.606 148.626C140.356 144.963 140.481 141.3 139.98 137.637C139.354 132.928 138.477 128.218 137.35 123.639C136.598 119.976 136.222 116.183 136.348 112.52C136.348 111.996 136.473 111.473 136.723 110.95C138.101 107.025 140.606 103.755 143.988 101.531C144.99 100.876 145.867 99.6991 146.994 99.3066C150.626 98.1292 154.384 97.7367 158.016 99.8299C159.143 100.484 160.271 101.138 161.523 101.792C162.4 102.315 163.026 102.97 163.527 103.755C167.66 109.511 170.917 115.921 173.422 122.593C175.426 128.48 177.054 134.498 178.682 140.385C179.183 142.216 179.559 144.048 180.185 145.748C180.812 147.58 181.313 149.542 181.563 151.504C182.189 153.99 182.941 156.476 184.068 158.83C184.82 160.531 185.321 162.363 185.696 164.194C186.448 166.941 188.577 167.857 190.832 168.642C191.458 168.773 192.084 168.642 192.585 168.38C194.714 167.203 196.718 166.026 197.47 163.409C197.595 163.017 197.846 162.624 198.096 162.232C198.096 157.522 198.096 152.682 198.096 147.972C197.971 143.524 197.595 139.076 196.969 134.628C196.593 130.18 195.716 125.733 194.84 121.415C194.213 116.444 193.211 111.473 192.084 106.502C191.207 103.1 191.583 99.5682 193.086 96.4285C194.213 94.3354 195.967 92.7655 198.096 91.8498C202.981 89.3642 207.991 89.8874 213.001 91.7189C213.502 91.9806 213.878 92.2422 214.254 92.6347C218.763 96.5593 222.019 101.792 223.773 107.679C224.524 110.165 224.775 112.781 225.526 115.398C225.777 116.575 226.152 117.883 226.528 119.061C228.282 124.555 229.534 130.311 230.16 136.067C230.536 139.207 230.411 142.347 230.787 145.356C231.162 147.841 231.288 150.196 231.413 152.682C231.288 157.391 230.912 162.101 230.286 166.811C229.91 169.95 228.908 173.09 228.783 176.23C228.532 178.192 227.906 180.154 226.904 181.855C225.401 184.995 223.773 188.004 221.894 190.882C220.266 193.236 218.512 195.33 216.633 197.423C214.003 200.432 210.872 202.917 207.239 204.618C206.989 205.272 206.989 205.534 206.864 205.665Z" fill="#172A88"/>
</g>
<defs>
<clipPath id="clip0_20_6">
<rect width="250" height="250" fill="white" transform="translate(25 25)"/>
</clipPath>
</defs>
</svg>
