<svg xmlns="http://www.w3.org/2000/svg" viewBox="0 0 768.59 584.76"><defs><style>.cls-1{fill:#fefefe;}.cls-2{fill:#203b8a;}.cls-3{fill:#fbfbfb;}.cls-4{fill:#ec691e;}.cls-5{fill:#050000;}.cls-6{fill:#1d1e1d;}</style></defs><g id="圖層_2" data-name="圖層 2"><path class="cls-1" d="M45.8,7.39q0,290.34-.07,580.67c0,2.88.66,3.53,3.53,3.53q382.2-.11,764.39-.07c-.13.18.29.6-.29.58-.77,0-1.54,0-2.3,0q-381.54,0-763.08.06c-2.29,0-2.82-.4-2.82-2.78q.11-289.69.1-579.4C45.26,9.14,44.6,8,45.8,7.39Z" transform="translate(-45.08 -7.39)"/><path class="cls-1" d="M333.62,253.16c-4.1,0-8.21-.07-12.31-.14-2,0-3.93-.27-3.83-3,.1-2.6,1.89-2.67,3.82-2.67,4.11,0,8.21-.09,12.32-.13,2.48,0,5-.09,7.44.13s2.85-.66,2.84-2.88c-.09-16.15,0-32.29-.06-48.44,0-1.77,0-3.45,1.7-4.52,9.1,0,18.2,0,27.3.11,1.41,0,1.79-.42,1.75-1.78-.09-3.07-.08-6.14,0-9.2,0-1.41-.26-2-1.87-2-16.29.07-32.59,0-48.88.1-3.55,0-4.66-.9-4.59-4.39,0-1.81,0-3.63,0-5.45,0-3.08,1.22-4.29,4.31-4.29,7.18,0,14.37,0,21.55-.06,1.53,0,3.07,0,4.58.14a4.91,4.91,0,0,0,5.36-2.68c1.8-3,3.78-6.2,6.47-8.32,8.72-6.87,17-14.57,28.15-17.6,3.86-1,7.67-2.24,11.57-3.16,4.71-.54,9.42-1.26,14.15-1.59,6.94-.48,13.89-.45,20.67,1.5,7.52,1.46,15.13,2.5,22.3,5.51,2,.83,3.68,2.34,5.92,2.55,6,.06,12.06.08,18.09.2,3.3.06,4.91,2.15,3.57,4.49-.93,1.62-2.66,1.22-4.1,1.48h-7.9c.92,2.92,3.61,3.85,4.93,5.93,5.15,8.06,9.75,16.38,12.45,25.66,2.49,8.56,3.71,17.37,5.59,26,1.43,6.6,1.32,6.63,8.21,5.8a6.36,6.36,0,0,1,2.86.76c1.12,1.52.65,3.27.66,4.93,0,6.82,0,6.82,7,6.41l10.59.1c3,0,4,1,4,3.87q.09,4,.08,8c0,2.55-1.21,3.64-3.89,3.67l-10.88.08H503.77c-5.49.13-11-.46-16.47.3,0,3,0,5.93-.16,8.89-.09,1.76.75,2.06,2.25,2,5.06-.12,10.13-.11,15.2-.24,2.74-.06,4,1.12,4,3.89q-.6,23.65-1.22,47.32c-.26,9.85-.49,19.69-.85,29.54-.08,2.2.46,3.15,2.82,3,2.09-.16,4.2,0,6.3.09,2.58.09,5.15.22,7.72.27,3.5.08,4.24.82,4.24,4.36s0,6.88,0,10.31a4.52,4.52,0,0,1-3.57,1.36c-4.78-.06-9.56,0-14.34,0-3.7,0-3.67,0-3.75,3.77-.3,14-.5,28.07-1,42.1-.1,2.85.83,5.93-.93,8.64-1,.81-2.12.67-3.25.67-5.27,0-10.54.1-15.8-.06-2-.05-2.4.62-2.3,2.41a49.16,49.16,0,0,1,0,7.18c-.17,2,.66,2.38,2.44,2.32,3.81-.15,7.63.14,11.43-.45a5.72,5.72,0,0,0,1.42.09c2.75-.52,2.61.78,2,2.79-.75,2.35-2.43,4.2-3.48,6.72h17c.67.09,1.33.16,2,.26a2.55,2.55,0,0,1,2.34,2.76,2.65,2.65,0,0,1-2.39,2.77,13.49,13.49,0,0,1-2.85.15c-6.23,0-12.45,0-18.68,0-1,0-2.14-.42-2.95.61a94.9,94.9,0,0,1-12.35,12.2,34.93,34.93,0,0,1-7.94,5.53c-7.59,3.55-15.57,5.85-23.59,8.07a100.13,100.13,0,0,1-32.41.09,42.59,42.59,0,0,0-4.7-1.08,46.38,46.38,0,0,1-19.43-6.36c-9.87-6.17-19.59-12.9-26-22.75-3-4.55-6.19-4.5-10.3-4.24l-.28.05c-4.4,0-8.81-.15-13.2-.06-2.73.06-3.84-1-3.67-3.76a61.25,61.25,0,0,0,0-7.17c-.15-2.67,1.1-3.57,3.61-3.51,4.31.08,8.62.05,12.92,0,.57,0,2.13.66,1.32-1.14,0-6.8.09-13.6.09-20.4,0-2.58.86-6.06-.45-7.49-1.55-1.68-5.06-.51-7.73-.43s-4-1.05-4-3.88q0-20.42,0-40.83c0-3.35.7-4.05,4-4.06q12.07-.06,24.15-.08a7.25,7.25,0,0,0,1-.1c.06-3.53.85-7.09-.4-10.56l-22.67-.1c-4.86,0-5-.2-5-5,0-19.71,0-39.42.06-59.13,0-2.22-.51-3.09-2.84-2.87S336.11,253.12,333.62,253.16Zm129.45,9c1.36-.71.72-2,.66-2.95-.21-2.91.85-5.92-.63-8.73l-4.31-.08c-3.77-.05-4.32-.67-4.3-4.34q.08-8.91,0-17.81a5.16,5.16,0,0,1,1.07-3.72c2.87-1.12,5.84-.23,8.75-.35,1.61-.07,2.43-.22,2.32-2.15-.18-3.14-.14-6.31,0-9.45.07-1.65-.48-2-2.07-2-6.2.06-12.41,0-18.61-.07a4,4,0,0,1-1.26-3.31c.12-2.2,0-4.4,0-6.6.18-6-1.46-11.19-6.08-15.39-5.23-4.75-11.08-6.79-18.06-5.16l-1.9.08c-6.77-.36-12.32,2.58-17.08,6.92a16.73,16.73,0,0,0-5.92,13.07c.18,45.24.1,90.49.11,135.73,0,1.52.2,3.08-1.23,4.17a5.61,5.61,0,0,1-1.41.07c-2.83-.57-3.38.7-3.3,3.33.09,3.06.73,6.2-.38,9.22a4.72,4.72,0,0,1-3.26.77c-2.3,0-4.61.08-6.9,0-1.49-.07-2.05.39-2,1.93.11,2.29.08,4.6,0,6.89-.05,1.4.3,2,1.88,2.09q20.76,1.23,41.55.81a56,56,0,0,0,9.43.18c2.55-.11,3.6,1.19,3.57,3.62s0,5.15,0,7.72c0,3.07-.7,3.82-3.85,3.85l-15.74.1c-2.28,0-4.58,0-6.86-.14-1.73-.12-2.11.61-2,2.18.18,2.76.14,5.53.28,8.29.32,6.16,2.17,11.3,7.68,15.09a46.34,46.34,0,0,0,15.32,6.47l1.76.06a20.26,20.26,0,0,0,15.35-4c4.22-3.13,7.74-6.83,7.71-12.84-.13-22.5-.06-45-.06-67.52,0-7.87,0-7.87-8.07-7.44-3.73-.05-7.46-.14-11.2-.13-2.07,0-3.78-.53-3.69-2.92s1.75-2.93,3.83-2.92c4.41,0,8.82-.05,13.23-.08.76,0,1.53,0,2.28.1,2.78.29,3.91-.78,3.68-3.71-.25-3.32,0-6.69-.09-10-.07-2,.51-3.31,2.5-3.82,6.22,0,12.44-.07,18.65,0,1.92,0,2.81-.34,2.62-2.47a35.11,35.11,0,0,1,0-6.32c.19-2.14-.7-2.51-2.62-2.47-5.75.13-11.5,0-17.25.11a4.48,4.48,0,0,1-3.8-1.4c0-6.37,0-12.74-.08-19.11,0-2.28,1-3.33,3.21-3.34ZM424.75,152.4v.47a21.93,21.93,0,0,1-3.44,0c-2.41-.38-2.55.91-2.53,2.81s.1,3,2.53,2.92c10.13-.13,20.28-.17,30.41,0,3.31,0,2.07-2.09,2.3-3.62.28-1.81-.12-2.66-2.34-2.62C442.71,152.49,433.73,152.4,424.75,152.4Zm50,207.78c0,2.47-1,5.87.26,7.16,1.42,1.49,4.8.24,7.33.26a14.1,14.1,0,0,1,1.72,0c1.59.23,2.16-.35,2.09-2-.13-3.14,0-6.29,0-9.44,0-3.76,0-3.79-3.76-3.75-2.47,0-5.73-.82-7.19.43C473.48,354.28,474.9,357.65,474.77,360.18ZM363.29,294.61c0-1.62,0-3.25,0-4.87,0-.62.22-1.53-.76-1.56-2.2-.08-4.4-.05-6.59,0-.77,0-.78.67-.8,1.26-.11,3.44-.22,6.87-.36,10.3,0,1.07.32,1.43,1.46,1.54,7.06.67,7.06.71,7.06-6.37Zm107.33-98.7c2.2,0,4.4-.08,6.59,0,2,.1,1.8-1.2,1.77-2.46s.35-2.54-1.71-2.49c-4.4.09-8.79.12-13.18,0-2.14-.06-1.67,1.32-1.65,2.46s-.59,2.62,1.59,2.5S468.42,195.92,470.62,195.91Zm-61.88-37.4c1.11-1,4.16,2.05,4.39-2.09.15-2.87-.62-4-3.52-3.44a7.58,7.58,0,0,1-2.56,0c-2.23-.33-2.84.52-2.86,2.76s.68,3.1,2.88,2.76A11.05,11.05,0,0,1,408.74,158.51Zm1.35,278.82c-1.24,0-2.48,0-3.73,0-1,0-1.7.12-1.71,1.32s.42,1.53,1.54,1.5q3.87-.08,7.74,0c1.1,0,1.56-.33,1.54-1.47s-.65-1.4-1.65-1.36C412.58,437.37,411.33,437.33,410.09,437.33Z" transform="translate(-45.08 -7.39)"/><path class="cls-1" d="M201.22,136.39c4.49,0,9,0,13.47-.11,1.49,0,2,.47,2,2-.12,6.56-.09,6.52,6.88,6.09,1.37-.09,1.93-.52,1.77-1.86a1.41,1.41,0,0,1,0-.29c.22-6.37.22-6.37,6.55-6.37q10.6,0,21.22,0c1.27,0,2.51,0,3.26,1.25,0,6.79,0,13.59.12,20.38a4.37,4.37,0,0,1-1.21,3c-1.6.88-3.35.47-5,.6-9,.71-9,.7-8.68,9.68a1.38,1.38,0,0,1,0,.29c-.19,1.39.45,1.9,1.8,1.84,4-.15,8,.27,12-.22,4.67.45,9.35.17,14,.18,4.13-.28,5,.59,5,4.71,0,2,0,4,0,6-.06,2.83-1.15,3.8-4.08,3.69a7.62,7.62,0,0,0-3.39.25c-2.48,0-5,.17-7.45-.05s-3,.61-3,3c.09,21.06,0,42.12,0,63.18a5,5,0,0,1-4.58,1.56c-9.08-.81-9-.73-9,8.34,0,2,.33,2.84,2.63,2.82,17.16-.11,34.31-.06,51.47-.07,3.05,0,3.83.78,3.78,3.89,0,2.11-.11,4.22-.07,6.32.09,4.68-.75,5.49-5.45,5.11-8.2,0-16.42,0-24.64-.1-2.17,0-2.71.58-2.69,2.73.1,13.32.05,26.63.05,39.95,0,7.71,0,7.71,8,7.19,2.58,0,5.16,0,7.74.13,1.86.06,3.72.23,3.85,2.77.14,2.77-1.85,3.1-3.81,3.14q-7,.13-14.06,0c-1.4,0-2,.33-1.64,1.75,0,1.32-.07,2.65-.07,4,0,8,0,8,8,7.7l13.25.24a4.14,4.14,0,0,1,1.22,3.29q-.07,20.07,0,40.15a5.91,5.91,0,0,1-.67,3c-2.17,1.26-4.43.28-6.65.25-2.55,0-5.1-.09-7.66-.15-1.25-.63-2.64-.27-4-.52-2-.4-2.86.28-2.78,2.55.2,5.25.1,10.51.14,15.77,0,3.06-.9,4-4,4-1.91,0-3.83.07-5.74,0-1.34-.06-1.87.4-1.86,1.78.05,9.66,0,19.31.15,29a5.52,5.52,0,0,1-1.5,4.35q-22.9,0-45.81.06a5,5,0,0,1-3-.79,13,13,0,0,1-.62-2.75c0-9.66,0-19.33,0-29,0-2.6,1.27-3.8,3.91-3.74l4,.11c2,.06,3.18-.58,3-3-.18-2.86,0-5.74-.07-8.61-.13-3.12,1.44-7.5-.61-9-2.26-1.7-6.43-.56-9.77-.34-1-.07-2.09-.19-3.13-.19q-38.38,0-76.75,0c-1.59,0-3.18-.09-4.77-.14-1.44-.77-1.76-2-1.76-3.57q.09-20.67,0-41.35a6.93,6.93,0,0,1,.83-3.23c3.25-6.53,6.41-13.1,9.75-20-1.6,0-2.75.08-3.88,0-2.33-.22-4.79.79-7-.75l-.84-.9c.11-1-.16-2,.4-3,3.4-6.38,6.68-12.82,10-19.25a3.48,3.48,0,0,1,2.36-1.93l39.83.09c1.24,0,2.48.06,3.72.09,1.55,1.55,1.63,3.22.68,5.15-2.46,5-4.83,10.14-7.27,15.19-2.08,4.33-2.11,4.32,2.82,4.32.86,0,1.72-.06,2.58,0a2.81,2.81,0,0,1,2.5,4.18c-.72,1.65-1.63,3.22-2.3,4.88-2.07,5.16-5.45,9.71-7,15.12.59,1,1.55.45,2.31.45q22.38.07,44.76,0c.76,0,2.28,1,2.31-1q0-32.49.08-65c0-6,0-6-6.07-6-2.74,0-3.84-1-3.84-3.75,0-5.94,0-11.89,0-17.83v-16.2c-3.5,6.64-7.24,13-9.88,20-.15.37-.31.73-.46,1.1a39,39,0,0,0-4.15,8c-2.54,5.83-5.94,11.27-7.89,17.37a4.78,4.78,0,0,1-3.8,1.39q-20.06-.07-40.1,0a5.06,5.06,0,0,1-3.81-1.41,9.52,9.52,0,0,1,.66-4.12c2.73-6.93,2.67-6.95-4.66-6.81-.38,0-.75.08-1.13.12-9.86-.05-19.72-.11-29.58-.12-8.62,0-17.24,0-25.86.06-2.6,0-3.91-1.27-3.92-3.79,0-2.2,0-4.4,0-6.6,0-3.27.68-4,4-4q33.34,0,66.67,0c1.23,0,2.49.28,3.68-.25.54-1,1.16-2,1.6-3q9.43-22.22,18.82-44.45c1.78-4.21,3.48-8.44,5.15-12.69.76-1.95.32-3.06-2.11-2.82-1.9.18-3.82.09-5.73.12-4.22-.05-8.44-.14-12.65-.12-2.09,0-3.76-.6-3.74-2.9s1.58-3,3.73-3c5.36.05,10.73,0,16.1-.06,2.11,0,4.21,0,6.31.12a2.49,2.49,0,0,0,2.79-1.82c2.77-6.68,5.6-13.33,8.39-20Q193.58,154.82,201.22,136.39Zm41.72,248.05c5.94,0,11.88-.08,17.82.05,1.83,0,2.19-.54,2.21-2.25s-.72-2-2.19-1.95q-17.67.07-35.35,0c-1.62,0-2.14.42-2.12,2.06s.41,2.16,2.09,2.14C231.25,384.38,237.09,384.44,242.94,384.44Zm-38.72-176.1c3.63,0,7.26-.11,10.88,0,2.46.1,1.59-1.6,1.62-2.7s.75-2.7-1.66-2.65q-10.74.18-21.49,0c-2.45,0-1.6,1.59-1.62,2.7s-.72,2.76,1.67,2.66C197.15,208.22,200.69,208.34,204.22,208.34Zm-60.83,153.1c1.71,0,3.44-.1,5.15,0s2.08-.36,2.11-2c0-1.83-.79-2-2.24-1.95-3.34.07-6.68.09-10,0-1.58-.05-2.36.13-2.42,2.08-.06,2.26,1.26,1.85,2.54,1.85Zm90.38-153.06c2.26-.1,4.27.73,4.17-2.59-.07-2.62-1.05-3-3.18-2.75-1.67.24-3.94-1.06-3.87,2.56C231,208.52,232.15,208.69,233.77,208.38Z" transform="translate(-45.08 -7.39)"/><path class="cls-1" d="M632.85,204.42c1-1,2.21-.89,3.46-.88,6.61,0,13.23,0,19.84.08,1.93,0,2.52-.55,2.42-2.44a63.44,63.44,0,0,1,0-8c.14-2-.73-2.29-2.47-2.29-18.2.05-36.41,0-54.62,0-10.25,0-20.51,0-30.76.12-2.61,0-3.68-1.3-3.79-3.59-.14-2.77-.13-5.55-.08-8.32,0-2.44,1.38-3.45,4.16-3.45q31.05.06,62.09.08a16.59,16.59,0,0,0,2-.22c2.48.06,5,.08,7.43.19a2.27,2.27,0,0,0,2.42-1.56q4.72-10.84,9.51-21.66c2.38-5.37,4.85-10.7,7.28-16,4-.07,8-.19,12.06-.18,14.75,0,29.5.1,44.26.15a4.89,4.89,0,0,1,1.21,3.37c-.08,6,0,12.05,0,18.07,0,2.71-1.12,3.78-3.81,3.76-4,0-8-.08-12-.08-7.09,0-7.09,0-7.09,7.14,0,4.47,0,4.35,4.53,4.51,3.3.11,6.67-.74,9.89.61,1.85,2.27.86,4.93.9,7.4,0,1.81.42,2.58,2.33,2.33,1.61-.21,3.24-.17,4.24,1.49q0,9.24,0,18.48a4.69,4.69,0,0,1-4.28,1.6c-1.65-.26-1.54.75-1.53,1.87s0,2.06,1.57,1.89a4.55,4.55,0,0,1,3.53.61c.86,1.18.67,2.54.67,3.87v53.19c0,7.21,0,7.21,7.31,6.73,3.26,0,6.51.06,9.77.13,2,0,3.7.59,3.63,3s-1.7,2.69-3.6,2.68c-4.89,0-9.78,0-14.67,0-.76,0-1.7-.49-2.3.46,0,14.75-.13,29.5-.09,44.25,0,2-.34,3.54-2,4.66-14.94,0-29.88,0-44.81.07a4.72,4.72,0,0,1-3.68-1.82c-.06-5.45-.2-10.91-.14-16.37,0-2.15,1.38-3.15,3.61-3.13,7.48.09,15,0,22.43.19,2.84.08,4.25-.48,3.79-3.67a24.49,24.49,0,0,1,0-5.74c.19-2-.64-2.36-2.44-2.34-8,.09-15.92,0-23.88,0-3,0-4.1-1.11-4.09-4.12q0-22.29.05-44.59c0-.56.31-1.27-.61-1.93l-8.25,19.27a11,11,0,0,0-1.72,3.69c-3.81,8.62-7.66,17.23-11.4,25.88-.91,2.1-2.16,3.13-4.56,2.95-2.66-.2-5.36,0-8-.11a2.27,2.27,0,0,0-2.6,1.64c-3.07,8.23-6.3,16.4-9.29,24.65-.8,2.2-1.86,3.46-4.27,3.25a49,49,0,0,1-5.43-.13c-2.78-.35-3.8.44-3.64,3.47.13,2.44.84,3.2,3.13,2.9,1.13-.15,2.29-.09,3.43-.13,4.41.28,5.24,2,2.91,5.85-1.54,2.54-3.38,4.95-4.23,7.91h35.56c1.42,0,2.83.07,4.25.08,5,0,5,0,5.5-5a5.56,5.56,0,0,1,3.93-1.24q20.94.09,41.88,0a7.8,7.8,0,0,1,3.59.63,5.81,5.81,0,0,1,.65,3.28c0,7.64,0,7.64,8,7,3.49,0,7,.14,10.47.07a10.39,10.39,0,0,1,3.85.55,3.41,3.41,0,0,1,.71,2.1q-.07,21.62-.12,43.22a5.78,5.78,0,0,1-4.15,1.27c-3.59-.09-7.18,0-10.77.06a46.62,46.62,0,0,1-4.88-.19c-2.62-.35-3.39.58-3.33,3.25.18,7.88.05,7.88,8.21,7.21,10.92,0,21.84.08,32.76.06,3.48,0,4.44.85,4.42,4.31,0,2.3,0,4.6.06,6.9.08,3-1,4.11-4,4.1-21.78,0-43.55,0-65.32-.17-2.67,0-3.21.78-3,3.17a69.91,69.91,0,0,1,0,8.06c0,1.45.32,2,1.88,2,7-.1,14,0,21-.11,1.49,0,2.85.05,4,1.11,1.09,4.23,0,8.56.53,12.81.28,2.19-.51,3.63-2.59,4.36-14.84-.06-29.67-.16-44.5-.12a16,16,0,0,1-3.88-.51,6.69,6.69,0,0,1-1-3.48c0-15,.09-30,0-45,0-2.52,1.18-6-.55-7.33s-4.93-.33-7.49-.37q-41.39,0-82.78-.05c-1.76,0-3.47,0-4.56-1.69-.49-1.93-.07-3.43,2-4.17,4.89,0,9.78-.05,14.67.07,1.75,0,2.5-.48,2.28-2.26-.13-1-.15-2.1-.21-3.15-.13-2.35.94-5.58-.67-6.8s-4.59-.36-7-.36c-8.92,0-17.83,0-26.75.06-2.61,0-3.65-1.21-3.68-3.59,0-3,0-5.94,0-8.91,0-2.57,1.21-3.71,3.87-3.74l5.47-.08c1,0,2.1.07,3.15.07,6.17,0,6.08,0,6.21-6.29.06-3-.86-6.19.4-9.06C567,333.52,573.91,319,580,304.07c2.55-6.2,5.47-10.12,12.73-8.48,1.18.27,1.91-.33,2.39-1.5,2.34-5.72,4.76-11.41,7.28-17.41l-11.62.64c-2.87.08-5.73.19-8.59.24-2.11.05-4.33-.14-4.38-2.87-.05-2.48,1.93-3,4-3.06,3.25-.12,6.5-.28,9.73-.42s6.47-.34,9.7-.24c2.58.07,4.31-.47,5-3.31a38.33,38.33,0,0,1,2.37-5.5Q620.77,233.28,632.85,204.42ZM657.8,380.29c6.7,0,13.41,0,20.12.16,2.11.05,1.71-1.21,1.7-2.4s.46-2.44-1.7-2.39c-6.7.17-13.41.11-20.12.14-1.39-.33-2.27.06-1.91,1.63C656.15,378.58,654.94,380.84,657.8,380.29Zm13.4-159.06c3.16,0,6.31-.06,9.46,0,1.37,0,1.93-.38,1.78-1.78a10,10,0,0,1,0-2.57c.28-1.94-.55-2.37-2.37-2.33-5.83.11-11.66.12-17.48,0-1.75,0-2.48.38-2.2,2.19a7.58,7.58,0,0,1,0,2.28c-.24,1.77.41,2.33,2.21,2.23C665.47,221.11,668.34,221.23,671.2,221.23Zm23.3,46.3c0-5.86,0-5.86-5.89-5.86-6.29,0-6.29,0-6.3,6.32,0,5.86,0,5.86,5.9,5.86C694.5,273.85,694.5,273.85,694.5,267.53ZM640.44,380.41c1,0,2.11,0,3.16,0,.46,0,1.18.15,1.25-.37a12,12,0,0,0,.07-3.69c-.23-1.22-1.44-.54-2.19-.6-1.42-.11-2.88.12-4.3-.06-2-.26-2,.88-2,2.37s0,2.72,2,2.38A12.24,12.24,0,0,1,640.44,380.41Z" transform="translate(-45.08 -7.39)"/><path class="cls-2" d="M370.94,330.75q-12.07,0-24.15.08c-3.28,0-4,.71-4,4.06q0,20.42,0,40.83c0,2.83,1.19,4,4,3.88s6.18-1.25,7.73.43c1.31,1.43.45,4.91.45,7.49,0,6.8-.06,13.6-.09,20.4-10.17,0-20.33,0-30.5.07-2.08,0-3-.6-2.89-2.77.12-2.87.09-5.75,0-8.63-.07-2.23.92-3.09,3.1-3.06,5.09.07,10.17,0,15.25.06,1.86,0,2.44-.5,2.43-2.4,0-3.25.23-6.51.52-9.75.15-1.71-.36-2.53-2.12-2.38a3.79,3.79,0,0,1-.58-.05c-6.49-.36-6.49-.36-6.49-6.76q0-59.55,0-119.09c2.49,0,5,.07,7.45-.16s2.85.65,2.84,2.87c-.09,19.71-.06,39.42-.06,59.13,0,4.79.18,5,5,5l22.67.1C371.34,323.64,372.31,327.26,370.94,330.75Z" transform="translate(-45.08 -7.39)"/><path class="cls-3" d="M296.52,556.06c-4.29,5.72-9.68,6.06-15.24,4.08-6.09-2.16-8.57-7.36-9.21-13.39a27.75,27.75,0,0,1,1.4-12.14c3.3-9.49,16.2-13.35,23.06-4.41C297,526,297,526,301.6,526c4,0,4,0,4,4.14,0,10.54,0,21.09-.18,31.63-.14,7.22-3.35,11.12-10.39,12.81-5.7,1.36-11.4,1.35-16.79-1.39a9.32,9.32,0,0,1-5.2-6.48c-.25-1.1-.42-1.81,1.13-1.76,2.39.09,4.79,0,7.19,0a1.59,1.59,0,0,1,1.63.81c2.13,3.49,5.43,3,8.67,2.24,3.07-.69,4.27-2.94,4.6-5.85A23.27,23.27,0,0,0,296.52,556.06Zm.21-12.47a14.11,14.11,0,0,0-1.16-6.13,6.78,6.78,0,0,0-6.83-4.22,6.49,6.49,0,0,0-6.37,4.4,15.8,15.8,0,0,0-1.09,5.88c0,6.11,3.07,10,7.85,10C293.68,553.5,296.66,549.6,296.73,543.59Z" transform="translate(-45.08 -7.39)"/><path class="cls-3" d="M345.76,58.61c0-7.19,0-14.38,0-21.58,0-1.56.31-2.16,2-2.15q15.39.12,30.79,0c1.67,0,2.07.53,2.09,2.13.1,6.13.16,6.13-6.09,6.13-5.66,0-11.32,0-17,0-1.56,0-2.27.32-2.12,2,.24,2.65-1.07,6.07.52,7.76s4.89.4,7.46.44c4.31.07,8.63.13,12.94,0,1.87-.07,2.18.56,2.18,2.26,0,5.93.05,5.93-5.93,5.93-5.08,0-10.17,0-15.25,0-1.49,0-2,.37-1.93,1.9a80,80,0,0,1,0,8.34c-.1,1.79.65,2,2.16,2,7.09-.07,14.2,0,21.29-.08,2.14,0,3,.36,2.94,2.77-.16,5.85,0,5.85-5.8,5.85-9.31,0-18.61,0-27.92,0-1.84,0-2.43-.41-2.4-2.35C345.83,72.81,345.76,65.71,345.76,58.61Z" transform="translate(-45.08 -7.39)"/><path class="cls-2" d="M197.56,262.78c2.64-6.93,6.38-13.33,9.88-20V259c0,5.94,0,11.89,0,17.83,0,2.72,1.1,3.77,3.84,3.75,6.07,0,6.08,0,6.07,6q0,32.49-.08,65c-2.49.08-5,.14-7.46.24-1.83.06-2.88-.61-2.86-2.61,0-3.26,0-6.52,0-9.78,0-17.92,0-35.85.06-53.77,0-1.93-1.35-3.89.39-6H202c-4.35,0-4.34,0-4.36-4.22S197.59,267,197.56,262.78Z" transform="translate(-45.08 -7.39)"/><path class="cls-2" d="M658.08,264.34l8.25-19.27c.92.66.61,1.37.61,1.93q0,22.31-.05,44.59c0,3,1.06,4.12,4.09,4.12,8,0,15.92.06,23.88,0,1.8,0,2.63.34,2.44,2.34a24.49,24.49,0,0,0,0,5.74c.46,3.19-1,3.75-3.79,3.67-7.47-.21-14.95-.1-22.43-.19-2.23,0-3.59,1-3.61,3.13-.06,5.46.08,10.92.14,16.37-2.39.07-4.78.09-7.17.21-2.09.11-2.9-.78-2.86-2.89.13-7.38-.06-14.77.27-22.13.43-9.87.25-19.73.34-29.6C658.23,269.67,658.84,267,658.08,264.34Z" transform="translate(-45.08 -7.39)"/><path class="cls-4" d="M515.61,333c-2.1,0-4.21-.25-6.3-.09-2.36.18-2.9-.77-2.82-3,.36-9.85.59-19.69.85-29.54q.62-23.65,1.22-47.32c.07-2.77-1.23-4-4-3.89-5.07.13-10.14.12-15.2.24-1.5,0-2.34-.27-2.25-2,.15-3,.12-5.93.16-8.89,5.49-.09,11,.52,16.47-.3h11.77q0,45.66,0,91.33C515.53,330.73,515.59,331.88,515.61,333Z" transform="translate(-45.08 -7.39)"/><path class="cls-4" d="M725.4,273.25c-7.3.48-7.3.48-7.31-6.73V213.33c0-1.33.19-2.69-.67-3.87,8-.61,8.05-.61,8,7.23,0,4.12.09,8.25-.05,12.37-.07,2.06.42,2.82,2.68,2.79,11.89-.12,23.79,0,35.68-.11,2.53,0,3.5.68,3.29,3.24-.18,2.28,0,4.6,0,6.9a2.2,2.2,0,0,1-2.7,2.49c-7.74-.74-15.51-.16-23.25-.59-4.5-.25-9-.11-13.48.07-1.86.08-2.17.7-2.16,2.35C725.49,255.22,725.42,264.23,725.4,273.25Z" transform="translate(-45.08 -7.39)"/><path class="cls-1" d="M194.34,537.28c0-7,.07-14-.05-21,0-1.91.31-2.66,2.45-2.6,6.23.16,12.46,0,18.69.09,12.7.19,16.39,8.6,14.87,18.77-1.07,7.1-5.48,10.79-12.79,11.19-3.63.2-7.28.26-10.92.13-2.09-.07-2.57.68-2.5,2.62.14,4.22,0,8.44.07,12.66,0,1.49-.38,2-1.9,1.9-2.56-.22-5.85,1-7.48-.49s-.39-4.71-.42-7.17C194.29,548,194.34,542.64,194.34,537.28Zm9.79-8.63c0,1.72.08,3.44,0,5.16-.09,1.41.24,2.08,1.84,2,2.68-.14,5.36,0,8-.1,4.54-.19,6.75-2.44,6.81-6.74.06-4.56-2-6.75-6.74-7.06-1.05-.06-2.1,0-3.16,0C204.13,521.88,204.13,521.88,204.13,528.65Z" transform="translate(-45.08 -7.39)"/><path class="cls-3" d="M655.26,530.09c0-5.13.07-9.71,0-14.29,0-1.63.46-2,2.07-2.06,7.23-.1,7.22-.16,7.22,7,0,12.45-.09,24.9.08,37.35,0,2.67-.79,3.37-3.18,3a11,11,0,0,0-1.72,0c-4,0-4,0-4.38-4.19-2,2-3.84,4.06-6.64,4.77a13.69,13.69,0,0,1-16.19-7.7,24,24,0,0,1,.4-21A13.4,13.4,0,0,1,655.26,530.09Zm.09,13.69a12,12,0,0,0-1.2-6.26,7.09,7.09,0,0,0-7.15-4.26c-3.19.13-5.1,1.84-6.17,4.71a16.39,16.39,0,0,0,.11,12,6.36,6.36,0,0,0,6.16,4.32c3,.1,5.42-1,6.87-3.75A12.47,12.47,0,0,0,655.35,543.78Z" transform="translate(-45.08 -7.39)"/><path class="cls-2" d="M590.82,277.32l11.62-.64c-2.52,6-4.94,11.69-7.28,17.41-.48,1.17-1.21,1.77-2.39,1.5-7.26-1.64-10.18,2.28-12.73,8.48-6.13,14.89-13,29.45-19.54,44.2-1.26,2.87-.34,6-.4,9.06-.13,6.29,0,6.3-6.21,6.29-1,0-2.1-.05-3.15-.07.7-4.77.31-9.56.21-14.34a5.61,5.61,0,0,1,.36-2.72q11.84-25.11,22.94-50.52a2.45,2.45,0,0,1,2.65-1.72c1.61.1,3.23.08,4.84.15,1.2.06,1.79-.4,2.29-1.61C586.19,287.59,588.54,282.47,590.82,277.32Z" transform="translate(-45.08 -7.39)"/><path class="cls-3" d="M257,556.88c-4.38,4-8.65,6-13.89,4.91s-8-4.34-8.31-9.52a10.39,10.39,0,0,1,7.16-10.85,44.36,44.36,0,0,1,8.69-1.69,20.19,20.19,0,0,0,3.65-.74,2.8,2.8,0,0,0,2.19-3,3.27,3.27,0,0,0-2.29-3c-3.86-1.48-7.29-.24-9.18,3.49a1.41,1.41,0,0,1-1.54.86h-3.74c-4.38,0-4.36,0-3-4.2,1.63-4.91,5.48-7,10.13-7.68a24.09,24.09,0,0,1,11.36.77c5.24,1.79,7.31,4.35,7.41,9.89.11,6.23,0,12.45.05,18.68,0,1.62-.09,3.19,1.35,4.49.91.82.75,1.73-.82,1.7a36.25,36.25,0,0,0-4.89,0C258.57,561.38,256.6,560.9,257,556.88Zm-.63-12.72a35.26,35.26,0,0,1-7.3,2c-1.76.39-3.61.82-4.52,2.64a4.48,4.48,0,0,0,.41,5.09c1.75,2.18,4.15,1.72,6.31,1.09C255.51,553.7,256.7,551.09,256.34,544.16Z" transform="translate(-45.08 -7.39)"/><path class="cls-3" d="M332.75,546.06c-3.45,0-6.9.06-10.36,0-1.31,0-1.59.41-1.49,1.64a7.62,7.62,0,0,0,5.34,6.76,6.87,6.87,0,0,0,7.92-2.53,2.67,2.67,0,0,1,2.6-1.22c1.54.05,3.07,0,4.61,0,3,0,3.27.47,1.88,3.2-3,5.89-10.82,9.39-17.89,8-8-1.56-13.13-7-13.6-14.49-.36-5.68-.29-11.3,3.38-16.17,4.36-5.8,10.43-6.84,17-5.75,6.26,1,10,5.23,11.76,11.22.16.54.25,1.11.38,1.67,1.62,6.79,1,7.67-5.74,7.67ZM328.1,540c1.73,0,3.46-.1,5.18,0s1.84-.56,1.53-2c-.75-3.48-3.51-5.51-7.42-5.26a6.91,6.91,0,0,0-6.16,6.14c-.11,1.38.73,1.08,1.41,1.1C324.46,540,326.28,540,328.1,540Z" transform="translate(-45.08 -7.39)"/><path class="cls-3" d="M407.22,541.46a16.37,16.37,0,0,1,8.37-14.23,18.66,18.66,0,0,1,19.41.33c5.67,3.41,7.55,9.15,7.88,15.41.41,7.78-3.74,15.13-9.8,17.77-6.74,2.94-16,1.53-20.7-3.14C409.05,554.28,407.18,549.17,407.22,541.46Zm26,2.27a15.73,15.73,0,0,0-.58-5.2c-1.17-3.8-3.7-5.79-7.5-5.83-4,0-6.67,1.86-7.82,5.77a16.91,16.91,0,0,0,.29,10.95,7.85,7.85,0,0,0,14.82-.15A13.64,13.64,0,0,0,433.21,543.73Z" transform="translate(-45.08 -7.39)"/><path class="cls-3" d="M455.44,83.37c-11,0-17.78-7.19-17.73-18.74.05-11.23,7-18.55,17.72-18.61s18,7.57,18,18.73C473.46,76.06,466.36,83.41,455.44,83.37Zm8.28-18.88a14.06,14.06,0,0,0-.59-4.79c-1.16-3.79-3.71-5.77-7.51-5.81s-6.4,1.69-7.69,5.53a16.55,16.55,0,0,0,.28,11.48,7.83,7.83,0,0,0,14.49,0A15.55,15.55,0,0,0,463.72,64.49Z" transform="translate(-45.08 -7.39)"/><path class="cls-3" d="M509.61,543.69c.15-6.73,2.1-12.65,8-16.27,12.68-7.74,27.41.62,27.68,15.68.13,6.73-1.85,12.94-7.92,16.53a18.74,18.74,0,0,1-19.93,0C511.59,556.1,509.79,550.16,509.61,543.69Zm26-.15a22.72,22.72,0,0,0,0-2.86c-.55-4.56-3.19-7.55-6.93-7.91-4.6-.45-7.69,1.48-8.91,5.78a17,17,0,0,0,.35,11,7.82,7.82,0,0,0,14.59.19A13,13,0,0,0,535.59,543.54Z" transform="translate(-45.08 -7.39)"/><path class="cls-3" d="M378.12,531c3-4.84,7.06-6,11.91-5.67,6.17.44,9.9,3.79,10.44,10,.7,8,.13,16.07.31,24.11,0,1.26-.43,1.56-1.64,1.65-7.87.54-7.86.58-7.87-7.19,0-5.07,0-10.15-.08-15.22-.08-3.44-1.62-5.34-4.39-5.79-3.4-.55-6.41.87-7.64,3.72a17.12,17.12,0,0,0-1.05,6.76c-.05,5.27-.07,10.54,0,15.8,0,1.5-.39,1.9-1.92,1.93-7.15.16-7.14.21-7.14-7,0-8.53.06-17-.05-25.58,0-2,.57-2.8,2.57-2.48a11,11,0,0,0,1.72,0C377.7,526,377.7,526,378.12,531Z" transform="translate(-45.08 -7.39)"/><path class="cls-3" d="M601.37,530.69c4.79-6.31,10.14-6.2,15.57-4.65a8.91,8.91,0,0,1,6.75,8.06c.89,8.5.21,17,.41,25.55,0,1-.28,1.46-1.29,1.38a6.17,6.17,0,0,0-.86,0c-7.34.18-7.34.18-7.35-7.1,0-5.08,0-10.16-.08-15.23-.08-3.47-1.58-5.36-4.33-5.83-3.39-.58-6.41.81-7.68,3.66a16.65,16.65,0,0,0-1.07,6.75c-.05,5.27-.06,10.53,0,15.8,0,1.4-.24,1.95-1.84,2-7.22.19-7.22.25-7.22-7,0-8.53.06-17.05,0-25.57,0-1.95.43-2.89,2.51-2.56a11.07,11.07,0,0,0,1.73,0C601.09,526,601.09,526,601.37,530.69Z" transform="translate(-45.08 -7.39)"/><path class="cls-4" d="M504,403.82c1.76-2.71.83-5.79.93-8.64.51-14,.71-28.07,1-42.1.08-3.77.05-3.77,3.75-3.77,4.78,0,9.56,0,14.34,0a4.52,4.52,0,0,0,3.57-1.36c4.06.19,4.06.19,4.06,4.21,0,2.11-.1,4.23,0,6.33s-.61,2.9-2.78,2.9c-3.64,0-7.27.47-10.91.43-2.09,0-2.51.66-2.49,2.61.08,11.8,0,23.6.1,35.39,0,2.79-.83,3.71-3.59,3.58A77,77,0,0,0,504,403.82Z" transform="translate(-45.08 -7.39)"/><path class="cls-1" d="M574.23,556.48c-4,5.18-9,6-14.46,4.75s-7.59-5.36-7.8-10.38c-.32-7.84-.16-15.71-.23-23.56,0-1,.27-1.46,1.3-1.34a6.17,6.17,0,0,0,.86,0c7.14-.13,7.14-.13,7.14,7,0,4.41,0,8.82,0,13.23.05,5.71,1.45,7.81,5.21,8,4.78.21,7.37-2,7.7-7.55.36-5.92.3-11.88.13-17.81-.08-2.49.69-3,3-2.91,6.29.16,6.29.05,6.29,6.46,0,8.82,0,17.63,0,26.45,0,1.69-.28,2.53-2.16,2.23a17.07,17.07,0,0,0-2.58,0C574.65,561,574.65,561,574.23,556.48Z" transform="translate(-45.08 -7.39)"/><path class="cls-2" d="M632.85,204.42q-12.09,28.86-24.17,57.74a38.33,38.33,0,0,0-2.37,5.5c-.71,2.84-2.44,3.38-5,3.31-3.23-.1-6.47.14-9.7.24a2.71,2.71,0,0,0,2.72-1.93c5.35-12.54,10.62-25.12,16.2-37.57,3.86-8.6,6.94-17.53,11.26-25.93a2.4,2.4,0,0,1,2.46-1.47C627.1,204.3,630,204.37,632.85,204.42Z" transform="translate(-45.08 -7.39)"/><path class="cls-2" d="M120.34,328.24c2.19,1.54,4.65.53,7,.75,1.13.1,2.28,0,3.88,0-3.34,6.86-6.5,13.43-9.75,20a6.93,6.93,0,0,0-.83,3.23q0,20.67,0,41.35c0,1.58.32,2.8,1.76,3.57-3.38,1.29-6.86.51-10.28.34-1,0-1.2-1.45-1.2-2.57q.08-22.36.05-44.73a7.4,7.4,0,0,1,.79-3.27Q116,337.58,120.34,328.24Z" transform="translate(-45.08 -7.39)"/><path class="cls-4" d="M256.51,253.64c0-21.06.07-42.12,0-63.18,0-2.37.56-3.2,3-3s5,.05,7.45.05q0,30.83,0,61.65c0,4.48,0,4.47-4.34,4.43C260.52,253.59,258.52,253.63,256.51,253.64Z" transform="translate(-45.08 -7.39)"/><path class="cls-4" d="M616.21,326.29c2.41.21,3.47-1.05,4.27-3.25,3-8.25,6.22-16.42,9.29-24.65a2.27,2.27,0,0,1,2.6-1.64c2.67.08,5.37-.09,8,.11,2.4.18,3.65-.85,4.56-2.95,3.74-8.65,7.59-17.26,11.4-25.88,0,4.78,0,9.56.16,14.33a6.79,6.79,0,0,1-.94,2.94c-1.76,4.21-3.62,8.39-5.24,12.65-.7,1.82-1.72,2.75-3.61,2.39-5-1-7.68.94-9.64,5.9-5.13,13-11,25.71-16.52,38.54a9,9,0,0,0-.35,1.38h-7.84c.85-3,2.69-5.37,4.23-7.91,2.33-3.84,1.5-5.57-2.91-5.85Z" transform="translate(-45.08 -7.39)"/><path class="cls-2" d="M345.54,191.47c-1.73,1.07-1.7,2.75-1.7,4.52,0,16.15,0,32.29.06,48.44,0,2.22-.5,3.1-2.84,2.88s-5-.1-7.44-.13c0-17.77,0-35.55-.06-53.32,0-2.65,1.05-3.62,3.58-3.49,2,.11,4,0,6,0C344.11,190.42,345.13,190.26,345.54,191.47Z" transform="translate(-45.08 -7.39)"/><path class="cls-2" d="M201.22,136.39q-7.65,18.42-15.31,36.83c-2.79,6.67-5.62,13.32-8.39,20a2.49,2.49,0,0,1-2.79,1.82c-2.1-.15-4.2-.09-6.31-.12a3.23,3.23,0,0,1-.46-3.38c5.57-13.12,11-26.28,16.52-39.44,2-4.74,3.9-9.5,5.85-14.25.33-.8.69-1.87,1.63-1.76C195.05,136.45,198.16,135.68,201.22,136.39Z" transform="translate(-45.08 -7.39)"/><path class="cls-2" d="M207,397.48c3.34-.22,7.51-1.36,9.77.34,2.05,1.53.48,5.91.61,9,.12,2.87-.11,5.75.07,8.61.15,2.38-1,3-3,3l-4-.11c-2.64-.06-3.9,1.14-3.91,3.74,0,9.66,0,19.33,0,29a13,13,0,0,0,.62,2.75,1.61,1.61,0,0,1-.54.17c-11.68-.13-9.22,1.88-9.42-8.76-.14-7.56,0-15.12,0-22.69,0-.67,0-1.34,0-2-.38-4.46-.19-4.68,4.46-4.48,6.58.29,5.4.48,5.5-5.34C207.18,406.28,207.05,401.88,207,397.48Z" transform="translate(-45.08 -7.39)"/><path class="cls-2" d="M165,201c1.91,0,3.83.06,5.73-.12,2.43-.24,2.87.87,2.11,2.82-1.67,4.25-3.37,8.48-5.15,12.69q-9.37,22.25-18.82,44.45c-.44,1-1.06,2-1.6,3l-8.38-.42c1.61-3.89,3.14-7.64,4.73-11.37q10.38-24.28,20.77-48.57A15.37,15.37,0,0,0,165,201Z" transform="translate(-45.08 -7.39)"/><path class="cls-1" d="M491.33,546.64c0-3.83-.09-7.67,0-11.49.06-1.78-.3-2.61-2.29-2.41-.91.09-2.49.71-2.74-.6a12.91,12.91,0,0,1,.14-5.36c.21-.86,1.74-.44,2.63-.35,1.82.19,2.45-.52,2.22-2.26a9.88,9.88,0,0,1,0-1.72c.19-5.74,2.85-8.59,8.53-9.15.38,0,.76,0,1.15,0,5.3-.16,6.52,1.41,5.29,6.59-.33,1.43-1.29.82-2,.83-1.6,0-3.13,0-3.71,1.94-.86,2.81-.07,3.7,3.09,3.81.9,0,2.41-.72,2.62.74.24,1.75.61,3.72-.24,5.32-.44.83-2,.39-3,.26-2.2-.29-2.68.54-2.64,2.66.14,7.75,0,15.51.1,23.26,0,1.82-.38,2.41-2.32,2.4-6.89,0-6.89.06-6.89-6.68Z" transform="translate(-45.08 -7.39)"/><path class="cls-4" d="M710.71,173.79c-3.22-1.35-6.59-.5-9.89-.61-4.52-.16-4.53,0-4.53-4.51,0-7.15,0-7.16,7.09-7.14,4,0,8,.06,12,.08,2.69,0,3.8-1.05,3.81-3.76,0-6,0-12,0-18.07a4.89,4.89,0,0,0-1.21-3.37c8.15-.1,7.46-.91,7.42,7.23q-.06,13.92.12,27.86c0,1.8-.52,2.29-2.26,2.25C719.13,173.66,714.92,173.76,710.71,173.79Z" transform="translate(-45.08 -7.39)"/><path class="cls-1" d="M450.92,544.84c0-3.17-.12-6.34,0-9.49.1-2-.39-2.92-2.47-2.52s-2.94-.52-2.6-2.64c.27-1.71-1-4.42,2.6-3.8,1.83.31,2.75-.36,2.43-2.32a5,5,0,0,1,0-.87c0-7.4.07-7.4,7.56-6.61,1.23.13,1.4.62,1.36,1.61s0,2.11,0,3.16c0,4.54,0,4.57,4.34,5,.92.09,1.42.26,1.35,1.29a10.68,10.68,0,0,0,0,2.59c.37,2.21-.55,3-2.64,2.57-2.55-.49-3.24.53-3.12,3.07.22,4.88.13,9.78,0,14.66-.05,2.8.86,4.5,3.94,4.06,1.77-.24,1.82.72,1.77,2-.21,5.57,1.12,4.75-4.81,4.9a21.91,21.91,0,0,1-4.83-.52c-3.2-.68-4.74-2.49-4.85-5.8s0-6.9,0-10.35Z" transform="translate(-45.08 -7.39)"/><path class="cls-4" d="M255.9,454.52a5.52,5.52,0,0,0,1.5-4.35c-.17-9.66-.1-19.31-.15-29,0-1.38.52-1.84,1.86-1.78,1.91.09,3.83,0,5.74,0,3.13,0,4.06-1,4-4,0-5.26.06-10.52-.14-15.77-.08-2.27.75-2.95,2.78-2.55,1.31.25,2.7-.11,4,.52,0,6.61-.12,13.22.11,19.82.1,2.76-1.21,3.6-3.46,3.71-1.72.07-3.4.4-5.09.55-1.38.12-1.82.53-1.78,1.87.27,9.08-.46,18.17.41,27.24.3,3.15-.87,4.21-4,3.95C259.72,454.59,257.81,454.59,255.9,454.52Z" transform="translate(-45.08 -7.39)"/><path class="cls-4" d="M167.87,352.14c1.51-5.41,4.89-10,7-15.12.67-1.66,1.58-3.23,2.3-4.88a2.81,2.81,0,0,0-2.5-4.18c-.86-.07-1.72,0-2.58,0-4.93,0-4.9,0-2.82-4.32,2.44-5.05,4.81-10.15,7.27-15.19.95-1.93.87-3.6-.68-5.15,3.4-.36,6.73,1.08,10.18.36,1.3-.27,1.57.34,1,1.67-2.41,5.79-4.61,11.66-7.05,17.43-.92,2.19-1.08,3.57,1.88,3.48a1.51,1.51,0,0,1,.28,0c5.4,1.05,5.34,1.13,2.94,6.08-2.82,5.81-5.38,11.74-8,17.65-.65,1.46-1.44,2.33-3.19,2.2C171.89,352.07,169.88,352.15,167.87,352.14Z" transform="translate(-45.08 -7.39)"/><path class="cls-2" d="M648.11,398.22c2.56,0,5.87-.88,7.49.37s.55,4.81.55,7.33c.05,15,0,30,0,45a6.69,6.69,0,0,0,1,3.48c-2.2.06-4.4.14-6.59.18-1.78,0-2.6-.82-2.59-2.64Q648,425.08,648.11,398.22Z" transform="translate(-45.08 -7.39)"/><path class="cls-4" d="M505.11,210.43c-6.89.83-6.78.8-8.21-5.8-1.88-8.68-3.1-17.49-5.59-26-2.7-9.28-7.3-17.6-12.45-25.66-1.32-2.08-4-3-4.93-5.93h7.9l-2.6.22c2.93,3.58,5.68,6.83,8.31,10.17,4.48,5.69,7.24,12.23,9.75,19,2.36,6.34,4.72,12.66,5.79,19.36C503.86,200.61,504.44,205.53,505.11,210.43Z" transform="translate(-45.08 -7.39)"/><path class="cls-3" d="M423.21,52.26c1.14-.15,1.27-1.27,1.83-1.9a12,12,0,0,1,3.48-2.94c4.6-2.27,6.21-1.32,6.21,3.68a4.93,4.93,0,0,0,0,.86c.49,2.8-.27,4-3.5,3.86-4.55-.21-6.81,2-7.42,6.6-.77,5.81-.27,11.67-.28,17.51,0,1.91-.56,2.34-2.39,2.33-6.87,0-6.87,0-6.87-6.76,0-8.62.06-17.24,0-25.87,0-2,.51-2.84,2.53-2.5a6.31,6.31,0,0,0,.87,0C422.77,47.13,422.77,47.13,423.21,52.26Z" transform="translate(-45.08 -7.39)"/><path class="cls-3" d="M397.58,52.64c2.3-3.64,4.88-6.12,9.11-6.21,1.56,0,2.38.28,2.15,2-.08.66,0,1.34,0,2,0,1.62.46,3.55-.26,4.77s-2.81.32-4.29.52c-3.54.47-5.71,2.43-6.26,6-.92,6-.3,12.05-.39,18.07,0,1.74-.26,2.46-2.28,2.44-7,0-7,0-7-7,0-8.62.06-17.24,0-25.86,0-1.92.57-2.63,2.42-2.33a1.38,1.38,0,0,0,.29,0c1.82,0,3.9-.52,5.38.2C398.17,48.18,396.59,50.63,397.58,52.64Z" transform="translate(-45.08 -7.39)"/><path class="cls-3" d="M489,52.45c.85-1.05,1.59-2,2.37-2.9a9,9,0,0,1,5.68-3c2.24-.37,3.86-.1,3.27,2.81a6.28,6.28,0,0,0,0,1.15c0,1.61.45,3.55-.28,4.76s-2.82.3-4.3.5c-3.54.5-5.7,2.46-6.24,6-.9,6-.31,12.05-.37,18.08,0,1.8-.38,2.41-2.32,2.4-6.93,0-6.93,0-6.93-7,0-8.43.11-16.86-.07-25.29-.06-2.51.75-3.15,3.05-2.89,1.8.21,4-.47,5.34.34S488.17,50.64,489,52.45Z" transform="translate(-45.08 -7.39)"/><path class="cls-4" d="M276,331.38c-8,.52-8,.52-8-7.19,0-13.32,0-26.63-.05-39.95,0-2.15.52-2.77,2.69-2.73,8.22.14,16.44.08,24.64.1-5.35,0-10.69.23-16,0-2.67-.1-3.37.79-3.35,3.31C276,300.43,276,315.9,276,331.38Z" transform="translate(-45.08 -7.39)"/><path class="cls-4" d="M289.78,397.51a5.91,5.91,0,0,0,.67-3q0-20.08,0-40.15a4.14,4.14,0,0,0-1.22-3.29c2.58,0,5.15,0,7.72-.09,1.93,0,2.45,1.15,2.42,2.75-.25,13.75-.31,27.49,0,41.23,0,1.68-.63,2.73-2.5,2.68C294.54,397.56,292.16,397.55,289.78,397.51Z" transform="translate(-45.08 -7.39)"/><path class="cls-4" d="M255.27,160.49a4.37,4.37,0,0,0,1.21-3c-.09-6.79-.09-13.59-.12-20.38,2.57-.06,5.15,0,7.71-.22,2.15-.15,2.86.68,2.84,2.79-.09,7.84,0,15.68,0,23.53,0,2.29.17,4.6-.05,6.88-.2,2.11.55,3,2.58,2.81-4.69,0-9.37.27-14-.18Z" transform="translate(-45.08 -7.39)"/><path class="cls-4" d="M716.12,328.49c1.68-1.12,2-2.68,2-4.66,0-14.75.05-29.5.09-44.25,7.23-.18,7.23-.18,7.24,7q0,19.85.09,39.69c0,2-.55,3.19-2.76,2.88S718.23,329.85,716.12,328.49Z" transform="translate(-45.08 -7.39)"/><path class="cls-4" d="M730.69,396.87q.06-21.6.12-43.22a3.41,3.41,0,0,0-.71-2.1c2.32-1.26,4.8-.48,7.2-.45,1.17,0,1.53,1.2,1.53,2.37q0,20.49,0,41c0,1.78-.95,2.58-2.69,2.55Z" transform="translate(-45.08 -7.39)"/><path class="cls-2" d="M661.74,136.44c-2.43,5.34-4.9,10.67-7.28,16q-4.8,10.8-9.51,21.66a2.27,2.27,0,0,1-2.42,1.56c-2.47-.11-4.95-.13-7.43-.19l10.38-24.11c1.88-4.37,3.85-8.71,5.59-13.14a2.58,2.58,0,0,1,2.93-2C656.57,136.41,659.16,136.39,661.74,136.44Z" transform="translate(-45.08 -7.39)"/><path class="cls-2" d="M401.23,132.85c-3.9.92-7.71,2.12-11.57,3.16-11.19,3-19.43,10.73-28.15,17.6-2.69,2.12-4.67,5.32-6.47,8.32a4.91,4.91,0,0,1-5.36,2.68c-1.51-.15-3.05-.1-4.58-.14-.17-3.75,3.27-5.35,4.88-8.05,1.74-2.93,4.77-4.62,7.31-6.76,3.51-2.94,6.85-6.16,10.68-8.6,7.18-4.58,14.94-7.94,23.56-8.8,2-.2,4-.37,6-.55A5,5,0,0,1,401.23,132.85Z" transform="translate(-45.08 -7.39)"/><path class="cls-2" d="M353.89,423.57l.28-.05c4.11-.26,7.34-.31,10.3,4.24,6.43,9.85,16.15,16.58,26,22.75a46.38,46.38,0,0,0,19.43,6.36,42.59,42.59,0,0,1,4.7,1.08,64.38,64.38,0,0,1-34.22-8.21c-9.58-5.3-18.14-11.87-24.08-21.32C355.36,426.9,353.15,426,353.89,423.57Z" transform="translate(-45.08 -7.39)"/><path class="cls-4" d="M303.63,441.9c.16-7.9-1.42-7.41,7.31-7.37s7.82-1.11,7.83,7.75c0,8.17,1.18,7.55-7.47,7.55C302.12,449.84,303.78,450.36,303.63,441.9Z" transform="translate(-45.08 -7.39)"/><path class="cls-1" d="M572.76,226.08c-5.56,0-11.11,0-16.66,0-2.17,0-3.72-.79-3.67-3,0-2,1.53-2.81,3.58-2.81q16.51.07,33,0c2.09,0,3.63.52,3.57,3,0,2.3-1.53,2.8-3.49,2.79C583.67,226.07,578.21,226.08,572.76,226.08Z" transform="translate(-45.08 -7.39)"/><path class="cls-1" d="M766.07,320.46c-5.26,0-10.53,0-15.79,0-2,0-3.45-.55-3.52-2.79-.07-2.4,1.42-3.06,3.54-3.06q15.65,0,31.3,0c2.13,0,3.93.43,3.82,3.07-.1,2.44-1.84,2.78-3.84,2.77C776.41,320.44,771.24,320.46,766.07,320.46Z" transform="translate(-45.08 -7.39)"/><path class="cls-4" d="M447,457.86c8-2.22,16-4.52,23.59-8.07a34.93,34.93,0,0,0,7.94-5.53,94.9,94.9,0,0,0,12.35-12.2l7.81.68c-1,2-2.72,3.24-4.17,4.63-9.74,9.27-20.92,16.2-34,19.5A38.67,38.67,0,0,1,447,457.86Z" transform="translate(-45.08 -7.39)"/><path class="cls-2" d="M536.25,185.16c-8.45,0-7.43.84-7.36-7.58,0-1.73,0-3.46.1-5.17.1-1.22.67-2.5,2.14-2.07,3.22.94,6.46.35,9.69.46,2.06.07,2.93.89,2.85,3-.12,2.78-.1,5.56,0,8.34.08,2.25-1,3.12-3.11,3C539.12,185.12,537.69,185.16,536.25,185.16Z" transform="translate(-45.08 -7.39)"/><path class="cls-2" d="M132.27,303.11a3.48,3.48,0,0,0-2.36,1.93c-3.33,6.43-6.61,12.87-10,19.25-.56,1-.29,2-.4,3-1.53,0-3.07,0-4.6.08-2.13.05-2.9-1.17-2.17-2.94,2.9-7,6-14,9-21,.2-.49.43-.87,1-.84C125.88,302.81,129.11,302.12,132.27,303.11Z" transform="translate(-45.08 -7.39)"/><path class="cls-4" d="M766.54,372.8c-7.14-.07-7.14-.07-7.15-7.07,0-6.13,0-6.13,6.26-6.13,1.91,0,3.83,0,5.74,0,1.67-.05,2.52.68,2.53,2.35,0,2.77,0,5.55,0,8.32,0,1.81-1.13,2.52-2.79,2.55S768.07,372.8,766.54,372.8Z" transform="translate(-45.08 -7.39)"/><path class="cls-4" d="M618.1,156.42c-.05,8.05.71,6.89-6.84,6.92-8,0-7.2,1-7.15-7.22,0-7.41-1.21-6.68,6.7-6.73h.28C619.13,149.52,618,148.28,618.1,156.42Z" transform="translate(-45.08 -7.39)"/><path class="cls-2" d="M543.73,275.53c6.71,0,6.66,0,6.73,6.79.07,7.87.86,7.1-7.23,7.07-7.14,0-6.59,1-6.56-6.59v-.28C536.72,274.28,536,275.69,543.73,275.53Z" transform="translate(-45.08 -7.39)"/><path class="cls-2" d="M118.49,201.34c-8.09,0-7,.68-7.07-7-.06-7.32-.6-6.86,6.74-6.83,7.71,0,7.1-.82,7.08,7C125.23,201.35,125.24,201.35,118.49,201.34Z" transform="translate(-45.08 -7.39)"/><path class="cls-3" d="M622,445.83H611.65c-2.1,0-4-.54-4-3s1.92-2.88,3.84-2.89c7.08,0,14.16,0,21.24,0,1.92,0,3.73.5,3.67,3s-1.86,2.87-3.79,2.89C629.06,445.87,625.52,445.83,622,445.83Z" transform="translate(-45.08 -7.39)"/><path class="cls-2" d="M578.61,427.89c.23,8.64.83,7.59-7,7.67h-2.87c-1.78,0-2.6-.89-2.59-2.64,0-2.77.09-5.54,0-8.31-.06-1.78.77-2.34,2.39-2.41,2.57-.1,5.13.12,7.72-.18a2.16,2.16,0,0,1,2.53,2.63C578.66,426,578.64,427.32,578.61,427.89Z" transform="translate(-45.08 -7.39)"/><path class="cls-4" d="M185.06,289.29c1.95-6.1,5.35-11.54,7.89-17.37a39,39,0,0,1,4.15-8c0,5.15.51,10.34,0,15.42-.35,3.27-2.2,6.39-3.4,9.56-.33.87-1.15.5-1.74.51C189.63,289.39,187.35,289.32,185.06,289.29Z" transform="translate(-45.08 -7.39)"/><path class="cls-4" d="M705.47,455c2.08-.73,2.87-2.17,2.59-4.36-.54-4.25.56-8.58-.53-12.81,2.32-.46,4.65-.15,7-.15,1.26,0,1.29.75,1.29,1.68,0,4.57,0,9.14,0,13.71,0,1.27-.53,2.26-1.67,2.2C711.25,455.13,708.33,455.78,705.47,455Z" transform="translate(-45.08 -7.39)"/><path class="cls-4" d="M718.13,203.49q0-9.24,0-18.48c1.46-.45,3,0,4.47-.24,1.74-.23,3.05.49,2.89,3-.28,4.37-.15,8.78,0,13.17.06,1.93-.48,2.85-2.54,2.68C721.37,203.45,719.74,203.51,718.13,203.49Z" transform="translate(-45.08 -7.39)"/><path class="cls-3" d="M169.78,426.83c-2.48,0-5,.05-7.45,0-1.89-.05-3.48-.82-3.51-2.95s1.52-2.89,3.45-2.91c4.87,0,9.74-.08,14.61,0,1.77,0,3.26.73,3.34,2.75s-1.38,3.06-3.28,3.15c-2.38.12-4.77,0-7.16,0Z" transform="translate(-45.08 -7.39)"/><path class="cls-3" d="M300.47,216.33c-2,0-4,0-6,0-1.82,0-2.86-.84-2.9-2.76s.89-2.95,2.71-3c4.11-.08,8.23-.09,12.35,0a2.87,2.87,0,0,1-.09,5.74C304.5,216.36,302.48,216.33,300.47,216.33Z" transform="translate(-45.08 -7.39)"/><path class="cls-4" d="M513.45,425.49h-17c1.05-2.52,2.73-4.37,3.48-6.72.63-2,.77-3.31-2-2.79a5.72,5.72,0,0,1-1.42-.09,1.19,1.19,0,0,1,.72-1.41,23.65,23.65,0,0,1,9.37,0c1.09.2,1.07,1.5.8,2.46-.65,2.28-1.1,4.62-2.69,6.56-1,1.19-.79,2,1.06,1.95C508.32,425.37,510.89,425.47,513.45,425.49Z" transform="translate(-45.08 -7.39)"/><path class="cls-4" d="M276,350.82c-8,.34-8,.34-8-7.7,0-1.32,0-2.65.07-4a19.3,19.3,0,0,0,3.13.09c4.75-.58,4.75-.61,4.76,4.16C275.94,345.87,276,348.34,276,350.82Z" transform="translate(-45.08 -7.39)"/><path class="cls-2" d="M132.22,278.49c.38,0,.75-.11,1.13-.12,7.33-.14,7.39-.12,4.66,6.81a9.52,9.52,0,0,0-.66,4.12c-2.38,0-4.77,0-7.15.11-1.83.09-2.48-.29-1.58-2.23C130,284.34,131,281.39,132.22,278.49Z" transform="translate(-45.08 -7.39)"/><path class="cls-4" d="M715.77,408.47c-8.16.67-8,.67-8.21-7.21-.06-2.67.71-3.6,3.33-3.25a46.62,46.62,0,0,0,4.88.19Z" transform="translate(-45.08 -7.39)"/><path class="cls-4" d="M715.78,350.93c-8,.66-8,.66-8-7a5.81,5.81,0,0,0-.65-3.28c2.11-.05,4.22-.07,6.32-.15,1.65,0,2.47.57,2.41,2.36C715.72,345.56,715.78,348.25,715.78,350.93Z" transform="translate(-45.08 -7.39)"/><path class="cls-4" d="M515.62,222.53c-7,.41-7,.41-7-6.41,0-1.66.46-3.41-.66-4.93,9.19-.22,7.35-1.12,7.56,7.05Z" transform="translate(-45.08 -7.39)"/><path class="cls-3" d="M506.3,146.09c-1.24,0-2.48,0-3.72,0-1.87-.07-3.15-1-3.17-2.94s1.19-2.87,3.13-2.86c2.58,0,5.16,0,7.73,0a2.59,2.59,0,0,1,2.89,2.81,2.79,2.79,0,0,1-2.85,2.95C509,146.19,507.64,146.08,506.3,146.09Z" transform="translate(-45.08 -7.39)"/><path class="cls-4" d="M464.27,140.82c-2.24-.21-3.94-1.72-5.92-2.55-7.17-3-14.78-4.05-22.3-5.51,3.65-1.88,7.39-.52,11.06-.19,5.77.52,10.72,3.62,16,5.6C464.4,138.64,464.29,139.77,464.27,140.82Z" transform="translate(-45.08 -7.39)"/><path class="cls-2" d="M562.74,392.31c-2,.74-2.46,2.24-2,4.17-2.47,0-4.95.08-7.42.17-1.51.05-2.57-.42-2.08-2.1.42-1.46-1.67-4.2,2-4.12,2.57.05,5.14.14,7.7,0C562.44,390.39,562.8,391.05,562.74,392.31Z" transform="translate(-45.08 -7.39)"/><path class="cls-2" d="M657.69,341.26c-.46,5-.46,5-5.5,5-1.42,0-2.83-.05-4.25-.08a16.52,16.52,0,0,0,0-2c-.23-2.16.59-3.44,2.86-3S655.42,339.89,657.69,341.26Z" transform="translate(-45.08 -7.39)"/><path class="cls-4" d="M418.66,180.06a3.86,3.86,0,0,1-2.47,2.46c-8.51,3.88-13.09,10.64-13.48,19.94-1.27,30.08-.33,60.19-.65,90.28,0,1.9.53,2.66,2.4,2.36a2.81,2.81,0,0,1,.29,0c8.28.06,8.28.06,8.28,8.5,0,7.09.62,6.49-6.49,6.41-4.44-.05-4.44,0-4.44,4.58,0,7.28-.11,14.57,0,21.86.07,2.77-.8,3.95-3.59,3.64-1.33-.15-2.68-.1-4-.14,1.43-1.09,1.23-2.65,1.23-4.17,0-45.24.07-90.49-.11-135.73A16.73,16.73,0,0,1,401.58,187C406.34,182.64,411.89,179.7,418.66,180.06Z" transform="translate(-45.08 -7.39)"/><path class="cls-2" d="M430.32,412.45c-1.58-2.08-.75-3.52,1.25-4.61,3-1.62,6.26-2.44,8.82-5.06a16.74,16.74,0,0,0,4.85-12.38q0-34.87,0-69.73c8.08-.43,8.08-.43,8.07,7.44,0,22.51-.07,45,.06,67.52,0,6-3.49,9.71-7.71,12.84A20.26,20.26,0,0,1,430.32,412.45Z" transform="translate(-45.08 -7.39)"/><path class="cls-2" d="M453.39,284.66c-9.72.41-7.95.53-8-7.1q0-25.32-.12-50.64c0-1.59.53-2.72,2.21-2.67,2.67.07,5.36-.31,8,.24a5.16,5.16,0,0,0-1.07,3.72q.11,8.89,0,17.81c0,3.67.53,4.29,4.3,4.34l4.31.08,0,11.68-6.55.09c-2.23,0-3.24,1.06-3.21,3.34C453.38,271.92,453.37,278.29,453.39,284.66Z" transform="translate(-45.08 -7.39)"/><path class="cls-2" d="M445.92,210.44c-2.73,1.34-5.63.66-8.44.53-1.35-.06-1.31-1.54-1.41-2.74-.4-5.2-.35-10.44-2.41-15.43A19.35,19.35,0,0,0,424,182.71c-1.32-.68-3-1-3.46-2.73,7-1.63,12.83.41,18.06,5.16,4.62,4.2,6.26,9.38,6.08,15.39-.06,2.2.08,4.4,0,6.6A4,4,0,0,0,445.92,210.44Z" transform="translate(-45.08 -7.39)"/><path class="cls-4" d="M389.45,352.57c3.16,0,6.32.13,9.48,0,2-.06,2.74.75,2.65,2.71-.1,2.3.15,4.62-.06,6.89s.77,2.87,2.94,2.82c5.44-.12,10.88,0,16.31,0q-20.82.45-41.57-.81c-1.58-.09-1.93-.69-1.88-2.09.08-2.29.11-4.6,0-6.89-.08-1.54.48-2,2-1.93,2.29.11,4.6,0,6.9,0A4.72,4.72,0,0,0,389.45,352.57Z" transform="translate(-45.08 -7.39)"/><path class="cls-4" d="M414.15,380.5a33.1,33.1,0,0,0,3.58,22.06,13.78,13.78,0,0,0,8.39,6.84c1.33.37,2.75,1.08,2.44,3a46.34,46.34,0,0,1-15.32-6.47c-5.51-3.79-7.36-8.93-7.68-15.09-.14-2.76-.1-5.53-.28-8.29-.1-1.57.28-2.3,2-2.18C409.57,380.51,411.87,380.46,414.15,380.5Z" transform="translate(-45.08 -7.39)"/><path class="cls-2" d="M447.42,314.62c-1.75-.34-2.31-1.3-2.22-3.15.18-3.89.11-7.8.05-11.7,0-2.06.84-3,2.89-2.9,2.55.15,5.12-.31,7.65.29-2,.51-2.57,1.84-2.5,3.82.12,3.34-.16,6.71.09,10,.23,2.93-.9,4-3.68,3.71C449,314.64,448.18,314.65,447.42,314.62Z" transform="translate(-45.08 -7.39)"/><path class="cls-5" d="M463.07,262.12l0-11.68c1.48,2.81.42,5.82.63,8.73C463.79,260.11,464.43,261.41,463.07,262.12Z" transform="translate(-45.08 -7.39)"/><path class="cls-6" d="M370.94,330.75c1.37-3.49.4-7.11.62-10.66,1.25,3.47.46,7,.4,10.56A7.25,7.25,0,0,1,370.94,330.75Z" transform="translate(-45.08 -7.39)"/><path class="cls-2" d="M657.8,375.8c0,1.49,0,3,0,4.49-2.85.55-1.64-1.71-1.9-2.86C655.53,375.86,656.41,375.47,657.8,375.8Z" transform="translate(-45.08 -7.39)"/></g></svg>