<svg xmlns="http://www.w3.org/2000/svg" viewBox="0 0 47.5 47.5"><defs><clipPath id="a"><path d="M0 38h38V0H0v38Z"/></clipPath></defs><g clip-path="url(#a)" transform="matrix(1.25 0 0 -1.25 0 47.5)"><path fill="#3b88c3" d="M37 5a4 4 0 0 0-4-4H5a4 4 0 0 0-4 4v28a4 4 0 0 0 4 4h28a4 4 0 0 0 4-4V5Z"/><path fill="#bbddf5" d="M37 10H1v17h36V10Z"/><path fill="#269" d="M6.474 17.45h3.041l-1.489 4.642h-.031L6.474 17.45Zm-.176 5.81c.272.736.896 1.329 1.713 1.329.848 0 1.44-.561 1.712-1.329l3.137-8.707c.096-.256.129-.481.129-.593 0-.624-.513-1.056-1.105-1.056-.672 0-1.008.352-1.168.832l-.481 1.505H5.786l-.48-1.489c-.161-.496-.497-.848-1.153-.848-.64 0-1.184.48-1.184 1.12 0 .256.079.448.111.529l3.218 8.707zM15.465 22.188H13.72c-.768 0-1.088.561-1.088 1.104 0 .561.4 1.105 1.088 1.105h5.891c.688 0 1.088-.544 1.088-1.105 0-.543-.32-1.104-1.088-1.104h-1.745v-8.035c0-.8-.512-1.248-1.2-1.248-.689 0-1.201.448-1.201 1.248v8.035ZM23.033 23.26c.096.576.72 1.232 1.568 1.232.801 0 1.424-.576 1.601-1.152l1.89-6.338h.031l1.889 6.338c.175.576.8 1.152 1.599 1.152.85 0 1.473-.656 1.57-1.232l1.489-8.932c.015-.096.015-.192.015-.272 0-.704-.511-1.152-1.152-1.152-.816 0-1.137.368-1.248 1.12l-.945 6.515h-.032l-1.921-6.707c-.112-.384-.417-.928-1.28-.928-.865 0-1.169.544-1.281.928l-1.92 6.707h-.033l-.944-6.515c-.113-.752-.432-1.12-1.249-1.12-.639 0-1.152.448-1.152 1.152 0 .08 0 .176.017.272l1.488 8.932Z"/></g></svg>